<svg width="60" height="60" viewBox="0 0 60 60" fill="none" xmlns="http://www.w3.org/2000/svg">
<rect x="1" y="1" width="58" height="58" rx="29" stroke="#D4C6EC" stroke-width="2"/>
<path d="M40.1667 41V44.5H19.1667V41C19.1667 38.4263 21.2597 36.3333 23.8333 36.3333H35.5C38.0737 36.3333 40.1667 38.4263 40.1667 41ZM41.3333 23.5V29.3333H39V34H20.3333V29.3333H18V23.5H20.3333V22.3333C20.3333 20.4037 21.9037 18.8333 23.8333 18.8333H28.5V16.5H30.8333V18.8333H35.5C37.4297 18.8333 39 20.4037 39 22.3333V23.5H41.3333ZM28.5 26.4167C28.5 25.4507 27.716 24.6667 26.75 24.6667C25.784 24.6667 25 25.4507 25 26.4167C25 27.3827 25.784 28.1667 26.75 28.1667C27.716 28.1667 28.5 27.3827 28.5 26.4167ZM34.3333 26.4167C34.3333 25.4507 33.5493 24.6667 32.5833 24.6667C31.6173 24.6667 30.8333 25.4507 30.8333 26.4167C30.8333 27.3827 31.6173 28.1667 32.5833 28.1667C33.5493 28.1667 34.3333 27.3827 34.3333 26.4167Z" stroke="#6F42C1" stroke-width="2"/>
</svg>
