<svg width="60" height="60" viewBox="0 0 60 60" fill="none" xmlns="http://www.w3.org/2000/svg">
<rect x="1" y="1" width="58" height="58" rx="29" stroke="#CCE9E2" stroke-width="2"/>
<path d="M28.7109 27.8613C28.8672 28.0371 29.0576 28.1738 29.2822 28.2715C29.5068 28.3691 29.7461 28.418 30 28.418C30.2539 28.418 30.4932 28.3691 30.7178 28.2715C30.9424 28.1738 31.1328 28.0371 31.2891 27.8613L34.5996 24.5801C34.7754 24.4043 34.9072 24.2041 34.9951 23.9795C35.083 23.7549 35.127 23.5156 35.127 23.2617C35.127 23.0078 35.083 22.7686 34.9951 22.5439C34.9072 22.3193 34.7754 22.1289 34.5996 21.9727L31.2891 18.6621C31.1328 18.5059 30.9424 18.3789 30.7178 18.2812C30.4932 18.1836 30.2539 18.1348 30 18.1348C29.7461 18.1348 29.5068 18.1836 29.2822 18.2812C29.0576 18.3789 28.8672 18.5059 28.7109 18.6621L25.4004 21.9727C25.2246 22.1289 25.0928 22.3193 25.0049 22.5439C24.917 22.7686 24.873 23.0078 24.873 23.2617C24.873 23.5156 24.917 23.7549 25.0049 23.9795C25.0928 24.2041 25.2246 24.4043 25.4004 24.5801L28.7109 27.8613ZM41.9531 29.3262L38.6719 26.0156C38.4961 25.8594 38.2959 25.7324 38.0713 25.6348C37.8467 25.5371 37.6074 25.4883 37.3535 25.4883C37.0996 25.4883 36.8652 25.5371 36.6504 25.6348C36.4355 25.7324 36.2402 25.8594 36.0645 26.0156L32.7539 29.3262C32.5977 29.502 32.4707 29.6973 32.373 29.9121C32.2754 30.127 32.2266 30.3613 32.2266 30.6152C32.2266 30.8691 32.2754 31.1084 32.373 31.333C32.4707 31.5576 32.5977 31.7578 32.7539 31.9336L36.0645 35.2148C36.2402 35.3906 36.4355 35.5273 36.6504 35.625C36.8652 35.7227 37.0996 35.7715 37.3535 35.7715C37.6074 35.7715 37.8467 35.7227 38.0713 35.625C38.2959 35.5273 38.4961 35.3906 38.6719 35.2148L41.9531 31.9336C42.1289 31.7578 42.2656 31.5576 42.3633 31.333C42.4609 31.1084 42.5098 30.8691 42.5098 30.6152C42.5098 30.3613 42.4609 30.127 42.3633 29.9121C42.2656 29.6973 42.1289 29.502 41.9531 29.3262ZM27.7734 30.6152C27.7734 30.3613 27.7246 30.127 27.627 29.9121C27.5293 29.6973 27.4023 29.502 27.2461 29.3262L23.9355 26.0156C23.7793 25.8594 23.5889 25.7324 23.3643 25.6348C23.1396 25.5371 22.9004 25.4883 22.6465 25.4883C22.3926 25.4883 22.1533 25.5371 21.9287 25.6348C21.7041 25.7324 21.5039 25.8594 21.3281 26.0156L18.0469 29.3262C17.8711 29.502 17.7344 29.6973 17.6367 29.9121C17.5391 30.127 17.4902 30.3613 17.4902 30.6152C17.4902 30.8691 17.5391 31.1084 17.6367 31.333C17.7344 31.5576 17.8711 31.7578 18.0469 31.9336L21.3281 35.2148C21.5039 35.3906 21.7041 35.5273 21.9287 35.625C22.1533 35.7227 22.3926 35.7715 22.6465 35.7715C22.9004 35.7715 23.1396 35.7227 23.3643 35.625C23.5889 35.5273 23.7793 35.3906 23.9355 35.2148L27.2461 31.9336C27.4023 31.7578 27.5293 31.5576 27.627 31.333C27.7246 31.1084 27.7734 30.8691 27.7734 30.6152ZM31.2891 33.3984C31.1328 33.2227 30.9424 33.0859 30.7178 32.9883C30.4932 32.8906 30.2539 32.8418 30 32.8418C29.7461 32.8418 29.5068 32.8906 29.2822 32.9883C29.0576 33.0859 28.8672 33.2227 28.7109 33.3984L25.4004 36.6797C25.2246 36.8555 25.0928 37.0557 25.0049 37.2803C24.917 37.5049 24.873 37.7441 24.873 37.998C24.873 38.2324 24.917 38.4619 25.0049 38.6865C25.0928 38.9111 25.2246 39.1113 25.4004 39.2871L28.7109 42.5977C28.8672 42.7539 29.0576 42.8809 29.2822 42.9785C29.5068 43.0762 29.7461 43.125 30 43.125C30.2539 43.125 30.4932 43.0762 30.7178 42.9785C30.9424 42.8809 31.1328 42.7539 31.2891 42.5977L34.5996 39.2871C34.7754 39.1113 34.9072 38.9111 34.9951 38.6865C35.083 38.4619 35.127 38.2324 35.127 37.998C35.127 37.7441 35.083 37.5049 34.9951 37.2803C34.9072 37.0557 34.7754 36.8555 34.5996 36.6797L31.2891 33.3984ZM19.8047 29.8242L21.8262 27.8027C21.9434 27.7051 22.0703 27.627 22.207 27.5684C22.3438 27.5098 22.4902 27.4805 22.6465 27.4805C22.8027 27.4805 22.9492 27.5098 23.0859 27.5684C23.2227 27.627 23.3398 27.7051 23.4375 27.8027L25.459 29.8242C25.5566 29.9219 25.6348 30.0391 25.6934 30.1758C25.752 30.3125 25.7812 30.459 25.7812 30.6152C25.7812 30.7715 25.752 30.918 25.6934 31.0547C25.6348 31.1914 25.5566 31.3184 25.459 31.4355L23.4375 33.457C23.3398 33.5547 23.2227 33.6328 23.0859 33.6914C22.9492 33.75 22.8027 33.7793 22.6465 33.7793C22.4902 33.7793 22.3438 33.75 22.207 33.6914C22.0703 33.6328 21.9434 33.5547 21.8262 33.457L19.8047 31.4355C19.707 31.3184 19.6289 31.1914 19.5703 31.0547C19.5117 30.918 19.4824 30.7715 19.4824 30.6152C19.4824 30.459 19.5117 30.3125 19.5703 30.1758C19.6289 30.0391 19.707 29.9219 19.8047 29.8242ZM34.541 29.8242L36.5625 27.8027C36.6602 27.7051 36.7773 27.627 36.9141 27.5684C37.0508 27.5098 37.1973 27.4805 37.3535 27.4805C37.5098 27.4805 37.6562 27.5098 37.793 27.5684C37.9297 27.627 38.0566 27.7051 38.1738 27.8027L40.1953 29.8242C40.293 29.9219 40.3711 30.0391 40.4297 30.1758C40.4883 30.3125 40.5176 30.459 40.5176 30.6152C40.5176 30.7715 40.4883 30.918 40.4297 31.0547C40.3711 31.1914 40.293 31.3184 40.1953 31.4355L38.1738 33.457C38.0566 33.5547 37.9297 33.6328 37.793 33.6914C37.6562 33.75 37.5098 33.7793 37.3535 33.7793C37.1973 33.7793 37.0508 33.75 36.9141 33.6914C36.7773 33.6328 36.6602 33.5547 36.5625 33.457L34.541 31.4355C34.4434 31.3184 34.3652 31.1914 34.3066 31.0547C34.248 30.918 34.2188 30.7715 34.2188 30.6152C34.2188 30.459 34.248 30.3125 34.3066 30.1758C34.3652 30.0391 34.4434 29.9219 34.541 29.8242ZM27.1875 22.4707L29.209 20.4492C29.3066 20.3516 29.4238 20.2734 29.5605 20.2148C29.6973 20.1562 29.8438 20.127 30 20.127C30.1562 20.127 30.3027 20.1562 30.4395 20.2148C30.5762 20.2734 30.6934 20.3516 30.791 20.4492L32.8125 22.4707C32.9297 22.5684 33.0127 22.6855 33.0615 22.8223C33.1104 22.959 33.1348 23.1055 33.1348 23.2617C33.1348 23.418 33.1104 23.5645 33.0615 23.7012C33.0127 23.8379 32.9297 23.9551 32.8125 24.0527L30.791 26.0742C30.6934 26.1914 30.5762 26.2793 30.4395 26.3379C30.3027 26.3965 30.1562 26.4258 30 26.4258C29.8438 26.4258 29.6973 26.3965 29.5605 26.3379C29.4238 26.2793 29.3066 26.1914 29.209 26.0742L27.1875 24.0527C27.0898 23.9551 27.0117 23.8379 26.9531 23.7012C26.8945 23.5645 26.8652 23.418 26.8652 23.2617C26.8652 23.1055 26.8945 22.959 26.9531 22.8223C27.0117 22.6855 27.0898 22.5684 27.1875 22.4707ZM27.1875 37.1777L29.209 35.1562C29.3066 35.0586 29.4238 34.9805 29.5605 34.9219C29.6973 34.8633 29.8438 34.834 30 34.834C30.1562 34.834 30.3027 34.8633 30.4395 34.9219C30.5762 34.9805 30.6934 35.0586 30.791 35.1562L32.8125 37.1777C32.9297 37.2949 33.0127 37.4219 33.0615 37.5586C33.1104 37.6953 33.1348 37.8418 33.1348 37.998C33.1348 38.1348 33.1104 38.2715 33.0615 38.4082C33.0127 38.5449 32.9297 38.6719 32.8125 38.7891L30.791 40.8105C30.6934 40.9082 30.5762 40.9863 30.4395 41.0449C30.3027 41.1035 30.1562 41.1328 30 41.1328C29.8438 41.1328 29.6973 41.1035 29.5605 41.0449C29.4238 40.9863 29.3066 40.9082 29.209 40.8105L27.1875 38.7891C27.0898 38.6719 27.0117 38.5449 26.9531 38.4082C26.8945 38.2715 26.8652 38.1348 26.8652 37.998C26.8652 37.8418 26.8945 37.6953 26.9531 37.5586C27.0117 37.4219 27.0898 37.2949 27.1875 37.1777Z" fill="#55B59E"/>
</svg>
