<svg width="60" height="60" viewBox="0 0 60 60" fill="none" xmlns="http://www.w3.org/2000/svg">
<rect x="1" y="1" width="58" height="58" rx="29" fill="#F9EBEB"/>
<rect x="1" y="1" width="58" height="58" rx="29" stroke="#F0CECC" stroke-width="2"/>
<path d="M43.8592 21.48L43.8596 21.4798C43.919 21.4501 43.9642 21.398 43.9852 21.335C44.0062 21.272 44.0014 21.2033 43.9717 21.1438C43.942 21.0844 43.89 21.0392 43.827 21.0182C43.7641 20.9972 43.6955 21.002 43.6362 21.0315L43.8592 21.48ZM43.8592 21.48L41.3598 22.7297C41.3004 22.7594 41.2316 22.7642 41.1686 22.7432C41.1056 22.7221 41.0535 22.6769 41.0238 22.6175C40.9942 22.5581 40.9893 22.4894 41.0103 22.4264C41.0314 22.3633 41.0766 22.3113 41.136 22.2816L41.1364 22.2814L43.6358 21.0317L43.8592 21.48ZM43.7496 33.9984H43.7477C43.7091 33.9984 43.6709 33.9894 43.6363 33.9721L41.1376 32.7228L41.1372 32.7226C41.0778 32.6929 41.0326 32.6409 41.0116 32.5779C40.9906 32.5149 40.9954 32.4461 41.0251 32.3867C41.0548 32.3273 41.1068 32.2821 41.1698 32.2611L40.8532 31.3125L41.1698 32.261C41.2328 32.24 41.3016 32.2449 41.361 32.2746L43.8604 33.5243L43.8616 33.5248C43.912 33.55 43.9525 33.5914 43.9764 33.6425L44.8819 33.2182L43.9764 33.6425C44.0003 33.6935 44.0063 33.7511 43.9933 33.806C43.9803 33.8608 43.9492 33.9097 43.905 33.9446C43.8607 33.9795 43.806 33.9985 43.7496 33.9984ZM17.1715 31.577L16.4643 32.2841L17.1715 31.577C16.4214 30.827 16 29.8096 16 28.7489V26.2491C16 25.1883 16.4214 24.171 17.1715 23.4209C17.9215 22.6709 18.9388 22.2495 19.9996 22.2495H28.7489C30.3808 22.2495 32.1585 21.8983 33.5609 20.9642C35.0142 19.9961 35.9984 18.439 35.9984 16.2499C35.9984 16.1836 36.0247 16.1201 36.0716 16.0732C36.1184 16.0263 36.182 16 36.2483 16C36.3146 16 36.3781 16.0263 36.425 16.0732C36.4719 16.1201 36.4982 16.1836 36.4982 16.2499V38.7481C36.4982 38.8144 36.4719 38.8779 36.425 38.9248C36.3781 38.9716 36.3146 38.998 36.2483 38.998C36.182 38.998 36.1184 38.9716 36.0716 38.9248C36.0247 38.8779 35.9984 38.8144 35.9984 38.7481C35.9984 36.559 35.0142 35.0019 33.5609 34.0338C32.1585 33.0997 30.3808 32.7485 28.7489 32.7485H19.9996C18.9388 32.7485 17.9215 32.3271 17.1715 31.577ZM19.9956 37.2483H19.9996H24.5895L26.337 41.0682C26.3374 41.069 26.3378 41.0698 26.3382 41.0707C26.4796 41.3861 26.54 41.7319 26.514 42.0767C26.4879 42.4223 26.3757 42.756 26.1877 43.0472C25.9996 43.3384 25.7417 43.5779 25.4374 43.7439C25.1331 43.9099 24.7922 43.9971 24.4457 43.9976C23.994 43.9973 23.552 43.8662 23.1732 43.6201C22.794 43.3739 22.4944 43.0229 22.3106 42.6099L22.3096 42.6077L19.9089 37.2475C19.9378 37.2479 19.9667 37.2482 19.9956 37.2483ZM43.9244 27.3223C43.9712 27.3691 43.9976 27.4327 43.9976 27.499C43.9976 27.5653 43.9712 27.6288 43.9244 27.6757C43.8775 27.7226 43.814 27.7489 43.7477 27.7489H41.2479C41.1816 27.7489 41.118 27.7226 41.0712 27.6757C41.0243 27.6288 40.998 27.5653 40.998 27.499C40.998 27.4327 41.0243 27.3691 41.0712 27.3223C41.118 27.2754 41.1816 27.2491 41.2479 27.2491H43.7477C43.814 27.2491 43.8775 27.2754 43.9244 27.3223Z" stroke="#CE5A56" stroke-width="2"/>
</svg>
