<svg width="60" height="60" viewBox="0 0 60 60" fill="none" xmlns="http://www.w3.org/2000/svg">
<rect x="1" y="1" width="58" height="58" rx="29" stroke="#D1D6FF" stroke-width="2"/>
<path d="M26.9238 43.2422C26.2988 43.2422 25.7666 43.0176 25.3271 42.5684C24.8877 42.1191 24.668 41.582 24.668 40.957C24.668 40.332 24.8877 39.7998 25.3271 39.3604C25.7666 38.9209 26.2988 38.7012 26.9238 38.7012C27.5488 38.7012 28.0859 38.9209 28.5352 39.3604C28.9844 39.7998 29.209 40.332 29.209 40.957C29.209 41.582 28.9844 42.1191 28.5352 42.5684C28.0859 43.0176 27.5488 43.2422 26.9238 43.2422ZM38.1738 43.2422C37.5488 43.2422 37.0166 43.0176 36.5771 42.5684C36.1377 42.1191 35.918 41.582 35.918 40.957C35.918 40.332 36.1377 39.7998 36.5771 39.3604C37.0166 38.9209 37.5488 38.7012 38.1738 38.7012C38.7988 38.7012 39.3359 38.9209 39.7852 39.3604C40.2344 39.7998 40.459 40.332 40.459 40.957C40.459 41.582 40.2344 42.1191 39.7852 42.5684C39.3359 43.0176 38.7988 43.2422 38.1738 43.2422ZM27.5684 37.0898C26.7676 37.0898 26.0693 36.8408 25.4736 36.3428C24.8779 35.8447 24.502 35.2246 24.3457 34.4824V34.4531L22.6465 25.9277C22.6465 25.9082 22.6465 25.8887 22.6465 25.8691C22.6465 25.8496 22.6367 25.8301 22.6172 25.8105L21.8262 21.7676H18.75C18.3984 21.7676 18.1006 21.6455 17.8564 21.4014C17.6123 21.1572 17.4902 20.8594 17.4902 20.5078C17.4902 20.1562 17.6123 19.8584 17.8564 19.6143C18.1006 19.3701 18.3984 19.248 18.75 19.248H22.8516C23.1445 19.248 23.4033 19.3457 23.6279 19.541C23.8525 19.7363 23.9941 19.9707 24.0527 20.2441V20.2734L24.9023 24.375H41.25C41.6016 24.375 41.8994 24.4971 42.1436 24.7412C42.3877 24.9854 42.5098 25.2832 42.5098 25.6348C42.5098 25.6738 42.5049 25.7129 42.4951 25.752C42.4854 25.791 42.4805 25.8301 42.4805 25.8691L40.8398 34.4531C40.6836 35.2148 40.3076 35.8447 39.7119 36.3428C39.1162 36.8408 38.418 37.0898 37.6172 37.0898C37.5977 37.0898 37.583 37.0898 37.5732 37.0898C37.5635 37.0898 37.5488 37.0898 37.5293 37.0898H37.5586H27.627H27.5684ZM25.4004 26.8652L26.8066 33.9551C26.8457 34.1504 26.9336 34.3066 27.0703 34.4238C27.207 34.541 27.373 34.5996 27.5684 34.5996C27.5684 34.5996 27.5732 34.5996 27.583 34.5996C27.5928 34.5996 27.5977 34.5996 27.5977 34.5996H37.5586C37.5781 34.5996 37.5879 34.5996 37.5879 34.5996C37.5879 34.5996 37.5977 34.5996 37.6172 34.5996C37.8125 34.5996 37.9785 34.541 38.1152 34.4238C38.252 34.3066 38.3398 34.1504 38.3789 33.9551L39.7266 26.8652H25.4004Z" fill="#6576FF"/>
</svg>
