<svg width="438" height="511" viewBox="0 0 438 511" fill="none" xmlns="http://www.w3.org/2000/svg">
<g filter="url(#filter0_bd_458_1309)">
<path d="M19 201.012C19 154.421 60.0627 118.43 106.449 122.792C143.135 126.241 185.062 129.277 219 129.277C252.938 129.277 294.865 126.241 331.551 122.792C377.937 118.43 419 154.421 419 201.012V406C419 448.526 384.526 483 342 483H96C53.4741 483 19 448.526 19 406V201.012Z" fill="white" fill-opacity="0.05" shape-rendering="crispEdges"/>
<path d="M20 201.012C20 155.034 60.5321 119.478 106.355 123.787C143.05 127.238 185.015 130.277 219 130.277C252.985 130.277 294.95 127.238 331.645 123.787C377.468 119.478 418 155.034 418 201.012V406C418 447.974 383.974 482 342 482H96C54.0264 482 20 447.974 20 406V201.012Z" stroke="url(#paint0_linear_458_1309)" stroke-width="2" shape-rendering="crispEdges"/>
</g>
<path d="M227.616 288.31C248.946 288.31 270.279 293.084 286.551 302.633C319.102 321.729 319.102 352.689 286.551 371.785C270.276 381.33 248.946 386.104 227.616 386.104C206.286 386.104 184.954 381.33 168.679 371.785C136.128 352.689 136.128 321.727 168.679 302.633C184.954 293.084 206.286 288.31 227.616 288.31ZM227.616 286.058C204.927 286.058 183.559 291.262 167.456 300.712C150.988 310.372 141.918 323.335 141.918 337.208C141.918 351.084 150.988 364.045 167.456 373.706C183.562 383.154 204.927 388.359 227.616 388.359C250.306 388.359 271.673 383.154 287.777 373.706C304.247 364.045 313.314 351.084 313.314 337.208C313.314 323.335 304.247 310.372 287.777 300.712C271.673 291.262 250.306 286.058 227.616 286.058Z" fill="url(#paint1_linear_458_1309)"/>
<path d="M285.279 337.571C285.279 337.954 285.253 338.334 285.232 338.719V338.785C284.527 345.361 278.916 351.872 268.398 356.894C245.882 367.657 209.35 367.657 186.834 356.894C177.161 352.275 171.62 346.399 170.259 340.361C170.094 339.44 170.024 338.517 170.024 337.571C170.024 329.393 176.199 321.806 187.421 316.198C198.198 310.813 212.496 307.865 227.663 307.865C242.832 307.865 257.107 310.815 267.881 316.198C279.106 321.806 285.279 329.393 285.279 337.571Z" fill="#BCBEC0"/>
<path d="M227.659 304.931C243.706 304.931 259.751 308.081 271.997 314.383C296.483 326.988 296.483 347.424 271.997 360.029C259.751 366.333 243.706 369.484 227.659 369.484C211.611 369.484 195.564 366.331 183.32 360.029C158.835 347.424 158.835 326.988 183.32 314.383C195.564 308.084 211.611 304.931 227.659 304.931ZM227.659 300.143C210.099 300.143 193.517 303.703 180.96 310.165C167.421 317.135 159.964 326.738 159.964 337.206C159.964 347.674 167.421 357.277 180.96 364.25C193.517 370.711 210.099 374.269 227.659 374.269C245.213 374.269 261.801 370.711 274.357 364.25C287.897 357.277 295.351 347.676 295.351 337.206C295.351 326.74 287.895 317.135 274.357 310.165C261.801 303.703 245.213 300.143 227.659 300.143Z" fill="url(#paint2_linear_458_1309)"/>
<path opacity="0.5" d="M192.359 181.331V147.329C213.1 142.203 236.785 141.87 257.89 146.369V180.37C236.785 175.872 213.1 176.203 192.359 181.331Z" fill="#5977FF"/>
<path opacity="0.5" d="M229.997 180.203V120.429C265.356 120.056 300.904 127.343 327.883 142.293C329.113 142.978 330.299 143.66 331.466 144.363V204.137C330.299 203.432 329.113 202.752 327.883 202.067C300.904 187.12 265.353 179.832 229.997 180.203Z" fill="#5977FF"/>
<path d="M168.076 182.149C166.221 181.991 162.727 188.167 165.164 190.865L166.202 191.275H170.095L169.508 183.111L168.076 182.149Z" fill="#191F65"/>
<path d="M172.536 184.649L169.132 192.802C169.132 192.802 161.83 188.275 159.436 186.991C157.44 185.91 155.679 184.289 154.622 184.581C152.909 185.077 149.035 185.842 147.438 185.077C145.842 184.311 148.283 183.433 148.283 183.433C147.086 183.433 146.076 183.523 145.302 183.32C142.649 182.599 145.09 181.473 145.09 181.473C144.198 181.473 142.766 180.955 143.236 179.897C143.494 179.266 144.55 179.064 145.325 178.793C144.949 178.726 144.691 178.613 144.503 178.456C143.869 177.915 144.433 176.969 145.419 176.699C146.687 176.384 152.674 176.113 154.951 175.821C155.491 175.753 156.031 175.798 156.548 175.908C156.571 175.908 156.571 175.908 156.571 175.908C156.595 175.908 156.642 175.931 156.665 175.931C156.806 175.953 156.994 176.021 157.252 176.111C157.886 176.314 158.449 176.584 158.872 176.809C159.623 177.17 160.375 177.597 161.079 178.048C161.196 178.115 161.29 178.183 161.384 178.251C164.108 180.007 166.221 181.989 166.221 181.989L171.269 184.106L172.536 184.649Z" fill="#EDC59D"/>
<path d="M166.221 181.991C166.221 181.991 163.944 179.852 161.079 178.05C160.375 177.6 159.624 177.172 158.872 176.812C158.45 176.586 157.886 176.316 157.252 176.113C156.994 176.023 156.806 175.956 156.665 175.933C156.642 175.933 156.595 175.911 156.571 175.911C156.571 175.911 156.572 175.911 156.548 175.911C156.032 175.798 155.492 175.753 154.952 175.823C152.674 176.116 146.687 176.386 145.419 176.701C144.433 176.971 143.87 177.917 144.504 178.458C144.433 178.3 144.198 177.827 144.903 177.58C145.701 177.264 154.935 176.618 155.59 176.911C157.426 177.575 158.987 179.449 158.201 180.203C157.299 181.068 150.993 177.289 150.129 180.102C149.714 181.455 155.475 183.241 156.658 183.838C158.332 184.683 158.905 185.858 164.115 185.858C164.115 185.858 168.36 187.511 169.557 187.511C170.379 187.511 170.471 186.205 171.269 184.111L166.221 181.991Z" fill="#CC936D"/>
<path d="M308.802 202.758C308.528 202.758 308.283 202.574 308.227 202.308C305.546 189.631 295.467 178.133 279.079 169.057C255.216 155.844 221.13 149.993 187.868 153.398C187.565 153.439 187.258 153.209 187.222 152.898C187.187 152.59 187.422 152.313 187.744 152.279C221.226 148.844 255.596 154.752 279.666 168.082C296.354 177.325 306.628 189.081 309.378 202.083C309.441 202.387 309.234 202.686 308.92 202.747C308.88 202.754 308.842 202.758 308.802 202.758Z" fill="url(#paint3_linear_458_1309)"/>
<path d="M220.127 160.258C220.127 160.258 219.658 161.407 218.906 163.299C216.018 170.46 208.928 188.072 207.543 191.675C205.758 196.202 203.481 201.382 193.151 201.429C183.29 201.474 165.165 190.889 165.165 190.889V190.867C165.681 191.092 166.292 191.092 166.902 190.754C167.747 190.326 168.451 189.403 168.898 188.277V188.254C169.32 187.241 169.532 186.047 169.438 184.921C169.32 183.57 168.804 182.602 168.076 182.153C172.325 184.09 187.187 190.486 192.658 188.077C198.527 185.487 199.208 179.271 203.105 170.893C207.684 161.046 220.127 160.258 220.127 160.258Z" fill="url(#paint4_linear_458_1309)"/>
<path d="M220.127 160.258C220.127 160.258 219.657 161.407 218.906 163.299L206.486 188.59C206.486 188.59 205.218 192.666 195.404 195.436C185.59 198.207 168.897 188.275 168.897 188.275V188.252C169.32 187.239 169.531 186.045 169.437 184.919C169.32 183.568 168.804 182.599 168.076 182.151C172.325 184.088 187.187 190.484 192.657 188.074C198.527 185.484 199.208 179.268 203.105 170.891C207.684 161.046 220.127 160.258 220.127 160.258Z" fill="#E6E7E8"/>
<path d="M223.392 311.358C223.392 311.358 226.595 312.34 226.595 317.416C226.595 322.493 226.595 332.062 226.595 332.062H224.562C224.562 332.062 224.454 324.056 223.846 324.056C223.238 324.056 222.592 331.181 222.592 332.062C222.592 332.94 220.082 336.062 217.333 337.431C214.586 338.8 210.106 339.287 209.291 338.508C208.477 337.724 207.742 332.785 212.689 329.35L223.392 311.358Z" fill="url(#paint5_linear_458_1309)"/>
<path d="M223.884 310.394C223.884 312.93 225.051 312.948 223.33 316.639C220.897 321.909 221.606 328.449 218.446 331.481C216.666 333.188 214.098 333.283 212.645 332.638C211.534 332.161 211.055 331.244 212.032 330.307C214.33 328.103 214.791 317.412 214.791 310.779C214.791 306.996 214.312 295.591 213.891 286.443C213.891 286.425 213.891 286.425 213.891 286.425C213.565 279.461 213.278 273.804 213.278 273.804L229.037 272.703C229.035 298.086 223.884 307.843 223.884 310.394Z" fill="#E8B18B"/>
<path d="M241.564 320.078C241.564 320.078 243.49 319.957 243.49 325.522C243.49 331.087 244.811 337.92 244.1 340.949C243.389 343.976 239.928 349.442 235.246 349.442C230.565 349.442 232.701 337.566 232.701 334.425C232.701 331.283 233.788 321.52 233.788 321.52L241.564 320.078Z" fill="url(#paint6_linear_458_1309)"/>
<path d="M242.19 308.908C242.171 311.811 241.119 318.531 241.788 320.903C242.478 323.27 241.788 330.634 241.788 334.42C241.788 337.8 240.257 341.07 237.384 341.528C237.022 341.582 236.639 341.602 236.236 341.566C233.766 341.325 233.648 337.872 233.592 333.629C233.517 328.56 233.784 322.718 233.784 321.524C233.784 320.367 232.329 307.252 230.911 294.893C230.911 294.873 230.911 294.873 230.911 294.873C229.608 283.375 228.344 272.556 228.344 272.556L243.509 272.739C247.169 287.031 242.211 304.608 242.19 308.908Z" fill="#E8B18B"/>
<path d="M245.732 277.849C245.732 277.849 245.253 284.992 229.591 284.992C213.929 284.992 212.339 277.849 212.339 277.849C212.339 277.849 212.013 277.094 211.515 275.644H211.496C210.078 271.491 207.129 261.609 205.944 247.139C204.335 227.592 211.975 218.557 211.975 218.557L223.944 218.041L246.406 218.192C246.406 218.192 252.222 225.518 252.189 238.211C252.137 257.158 245.732 277.849 245.732 277.849Z" fill="url(#paint7_linear_458_1309)"/>
<path d="M250.532 175.82C250.532 179.694 249.595 189.378 248.63 198.499C247.55 208.634 246.423 218.093 246.399 218.181C246.141 220.3 244.709 222.235 241.305 223.743C234.543 226.831 223.485 226.921 216.746 223.743C212.238 221.649 211.628 218.206 211.628 218.206C209.891 213.474 207.918 206.607 206.533 200.031C205.195 193.747 204.397 187.779 204.772 184.243C204.796 183.951 204.843 183.703 204.89 183.455C205.97 177.532 213.647 164.83 216.934 161.835C221.442 157.713 238.98 159.898 238.98 159.898C238.98 159.898 242.032 161.947 244.991 165.055C247.808 167.983 250.532 171.857 250.532 175.82Z" fill="url(#paint8_linear_458_1309)"/>
<path opacity="0.8" d="M244.988 165.055C241.962 177.082 235.74 200.797 235.059 196.72C234.143 191.293 225.268 188.635 217.779 185.257C210.829 182.126 205.523 183.973 204.772 184.243C204.795 183.951 204.842 183.703 204.889 183.455C205.969 177.532 213.647 164.83 216.934 161.835C221.442 157.713 238.98 159.898 238.98 159.898C238.98 159.898 242.032 161.947 244.988 165.055Z" fill="#E6E7E8"/>
<path d="M222.775 159.855C222.775 159.855 217.284 165.346 220.042 172.478C223.646 181.793 236.531 169.69 238.37 166.447C240.208 163.204 239.323 160.26 239.323 160.26L222.775 159.855Z" fill="#E8B18B"/>
<path d="M253.584 109.689C253.584 116.889 247.493 122.711 239.987 122.711C232.503 122.711 226.41 116.889 226.41 109.689C226.41 108.347 226.624 107.045 227.025 105.831C228.73 100.523 233.899 96.6649 239.987 96.6649C241.326 96.6649 242.61 96.8496 243.817 97.1987C249.468 98.7774 253.584 103.775 253.584 109.689Z" fill="#9C2C76"/>
<path d="M253.583 109.689C253.583 116.889 247.493 122.711 239.987 122.711C232.502 122.711 226.233 109.547 226.635 108.335C226.635 108.335 234.059 109.283 239.32 105.894C243.788 103.018 244.237 98.2841 243.814 97.2008C249.468 98.7773 253.583 103.775 253.583 109.689Z" fill="#B83B8E"/>
<path d="M222.775 160.263V144.165H239.325V160.263C239.339 161.481 238.534 162.7 236.907 163.627C233.672 165.472 228.431 165.472 225.198 163.627C223.566 162.7 222.764 161.481 222.775 160.263Z" fill="#E8B18B"/>
<path d="M249.026 138.104C244.793 149.144 238.226 150.302 238.226 150.302L237.022 141.43L236.407 137.003C236.351 136.579 236.311 136.14 236.235 135.735C236.235 135.717 236.235 135.717 236.235 135.697L235.893 133.181V133.163L235.202 128.204L226.126 122.675L221.475 120.655L209.698 125.686C209.698 125.686 209.966 109.43 230.187 107.685C231.93 107.538 233.559 107.556 235.05 107.723C250.846 109.522 252.896 128.021 249.026 138.104Z" fill="#9C2C76"/>
<path d="M244.526 138.435C243.549 146.921 239.682 146.975 239.586 146.975C239.586 148.205 239.032 149.362 238.111 150.448C238.093 150.448 238.093 150.486 238.055 150.486C237.442 151.202 236.658 151.898 235.775 152.581C234.841 153.297 233.784 153.977 232.657 154.655C229.554 156.547 224.365 159.321 220.284 158.089C219.481 157.851 218.754 157.538 218.063 157.191C211.534 153.774 209.599 145.216 209.294 137.647C209.254 137.39 209.254 137.242 209.254 137.242C209.024 130.208 210.137 124.127 210.137 124.127C219.808 117.184 227.025 119.72 231.927 124.256C232.465 124.751 232.981 125.285 233.458 125.816C235.066 127.616 236.367 129.564 237.365 131.307C239.029 134.192 239.835 136.487 239.835 136.487C239.835 136.487 239.891 136.395 239.968 136.266C240.276 135.825 240.985 134.852 241.769 134.485C243.244 133.769 244.986 134.449 244.526 138.435Z" fill="#EDC59D"/>
<path d="M235.009 132.309C235.009 133.458 234.963 134.674 234.847 135.98C234.847 135.98 233.061 136.904 230.126 137.489C229.095 137.714 227.898 137.895 226.557 137.962C226.51 137.962 226.463 137.715 226.395 137.264C226.231 136.138 226.043 133.751 225.9 131.701C225.832 130.936 225.783 130.192 225.759 129.584C225.736 129.337 225.736 129.111 225.71 128.909V128.886C225.663 128.323 225.642 127.985 225.642 127.985C225.642 127.985 225.592 128.368 225.571 128.976C225.548 129.179 225.524 129.382 225.524 129.629C225.454 130.237 225.381 130.981 225.336 131.791C225.149 133.728 224.911 135.935 224.7 137.129C224.606 137.669 224.515 137.985 224.465 137.985C222.587 137.917 220.544 137.489 218.338 137.039C213.313 136.048 210.59 133.998 209.298 132.692C208.547 131.949 208.242 131.431 208.242 131.431C208.242 131.431 208.218 131.273 208.195 130.981C208.101 129.9 208.007 127.017 209.017 124.134C209.017 124.112 209.017 124.112 209.04 124.089C209.392 123.008 209.932 121.927 210.66 120.959C210.942 120.553 211.271 120.193 211.623 119.833C217.258 114.27 226.696 114.495 226.696 114.495C226.696 114.495 227.001 114.563 227.468 114.743V114.765C228.22 115.058 229.417 115.711 230.64 116.995C231.532 117.918 232.424 119.202 233.176 120.936C233.622 121.95 233.998 123.121 234.3 124.472C234.3 124.472 234.3 124.472 234.3 124.494C234.512 125.395 234.676 126.386 234.796 127.467C234.843 127.647 234.843 127.828 234.864 128.008C234.913 128.458 234.934 128.931 234.958 129.427C235.035 130.328 235.059 131.296 235.009 132.309Z" fill="#9C2C76"/>
<path d="M239.989 136.323C239.989 136.323 239.607 142.183 237.691 142.183C236.58 142.183 236.714 138.656 236.235 135.735C236.12 135.019 235.909 134.357 235.698 133.787C235.277 132.704 234.817 131.969 234.817 131.969L230.645 124.127L231.927 124.256L237.404 124.772L238.475 129.566L239.968 136.271L239.989 136.323Z" fill="#9C2C76"/>
<path d="M238.607 141.633C238.346 141.971 238.041 142.174 237.689 142.174C237.572 142.174 237.452 142.126 237.358 142.016L238.607 141.633Z" fill="#B83B8E"/>
<path d="M249.029 138.097C244.8 149.133 238.227 150.304 238.227 150.304C239.095 149.245 239.588 148.142 239.588 146.971C239.682 146.971 243.065 146.926 244.284 140.012C249.217 132.535 247.057 119.774 244.601 115.254C242.922 112.166 239.323 109.689 235.059 107.716C250.837 109.518 252.903 128.03 249.029 138.097Z" fill="#B83B8E"/>
<path d="M220.266 317.265C218.866 325.898 215.708 330.49 212.645 332.639C211.534 332.161 211.055 331.244 212.032 330.308C214.33 328.103 214.791 317.412 214.791 310.779C214.791 306.996 214.312 295.591 213.891 286.443C214.309 287.069 222.966 300.661 220.266 317.265Z" fill="#EDC59D"/>
<path d="M237.384 341.528C237.022 341.582 236.639 341.602 236.236 341.566C233.766 341.325 233.648 337.872 233.592 333.629C233.517 328.56 233.784 322.718 233.784 321.524C233.784 320.367 232.329 307.253 230.911 294.893C230.911 294.893 239.126 297.296 239.126 310.376C239.126 321.011 239.969 334.551 237.384 341.528Z" fill="#EDC59D"/>
<path d="M239.825 133.818L239.517 134.269L239.144 134.832L236.609 138.525L236.562 138.593L235.317 140.417L232.03 137.579C232.03 137.579 231.326 137.557 230.126 137.489C229.166 137.444 227.898 137.377 226.395 137.264C225.855 137.219 225.29 137.174 224.703 137.129C223.2 136.994 221.557 136.836 219.843 136.656C215.335 136.138 211.344 133.48 209.324 131.927V131.904C208.808 131.521 208.151 131.206 207.916 130.981C207.822 129.9 208.01 127.017 209.019 124.134C209.019 124.112 209.019 124.112 209.043 124.089C209.16 124.427 209.371 124.9 209.724 125.418C209.747 125.485 209.794 125.553 209.841 125.621C209.841 125.643 209.864 125.666 209.888 125.688C210.757 126.972 212.33 128.503 215.1 129.292C218.34 130.215 222.191 129.99 225.524 129.629C225.616 129.607 225.689 129.607 225.759 129.584C227.896 129.359 229.774 129.066 231.136 128.999C231.911 128.954 232.615 128.999 233.272 129.066C233.883 129.134 234.446 129.269 234.963 129.427C235.127 129.449 235.268 129.517 235.388 129.562C235.855 129.719 236.277 129.9 236.653 130.125C237.782 130.733 238.557 131.476 239.05 132.174C239.59 132.85 239.825 133.48 239.825 133.818Z" fill="url(#paint9_linear_458_1309)"/>
<path d="M238.215 137.638C238.215 136.564 234.148 134.631 230.408 134.631C226.87 134.631 221.738 135.692 216.457 133.872C209.912 131.616 207.984 130.165 207.984 130.165L207.921 130.735C207.921 130.735 212.957 138.827 219.456 139.575C225.954 140.322 231.631 140.512 231.631 140.512L234.937 143.333L238.215 137.638Z" fill="#808285"/>
<path d="M243.77 134.494L240.741 135.102C240.741 135.102 242.478 121.297 238.816 117.175C237.712 115.914 234.871 113.369 230.481 111.928C226.515 110.621 222.146 110.261 219.845 110.689C219.517 110.734 219.235 110.824 219 110.914C219 110.914 217.239 112.006 216.441 112.66C216.37 112.727 216.302 112.777 216.255 112.82C215.575 113.473 215.924 111.723 216.37 110.529C216.817 109.335 218.272 108.007 220.503 107.579C222.287 107.241 228.157 107.759 232.265 108.93C236.374 110.124 241.093 113.344 242.593 116.204C245.225 121.297 243.77 134.494 243.77 134.494Z" fill="url(#paint10_linear_458_1309)"/>
<path d="M219.845 110.689C219.516 110.734 219.235 110.824 219 110.914C219 110.914 217.239 112.006 216.441 112.659C216.441 112.502 216.488 111.995 216.746 111.477C217.028 110.869 219.845 110.689 219.845 110.689Z" fill="#58595B"/>
<path d="M248.911 136.588C248.911 140.428 246.098 145.338 242.093 147.556C238.09 149.772 233.901 148.457 233.901 144.617C233.901 140.777 236.165 135.974 240.102 133.649C245.079 130.713 248.911 132.749 248.911 136.588Z" fill="#29299E"/>
<path d="M248.911 137.352C248.911 140.462 246.284 144.437 243.039 146.232C239.799 148.027 237.17 146.962 237.17 143.852C237.17 140.741 239.799 136.766 243.039 134.971C246.284 133.176 248.911 134.242 248.911 137.352Z" fill="url(#paint11_linear_458_1309)"/>
<path d="M234.143 142.557V142.894C234.094 145.417 233.04 149.403 226.37 149.2C226.065 149.2 225.759 149.178 225.454 149.155C221.04 148.93 216.415 148.119 212.588 146.475C211.79 146.137 211.038 145.755 210.311 145.327C209.489 144.831 208.714 144.313 208.033 143.705C207.822 143.525 207.611 143.345 207.423 143.165L207.047 131.611C207.047 131.611 211.813 134.967 218.082 136.566C219.232 136.859 220.453 137.084 221.698 137.219C222.871 137.332 224.069 137.377 225.29 137.309H225.384C234.777 136.724 234.12 140.53 234.143 142.557Z" fill="#191F65"/>
<path d="M234.144 142.557V142.894L225.457 149.155C221.043 148.93 216.418 148.119 212.591 146.475L225.292 137.309H225.386C234.778 136.724 234.12 140.53 234.144 142.557Z" fill="url(#paint12_linear_458_1309)"/>
<path d="M221.7 137.219L210.313 145.327C209.492 144.831 208.717 144.313 208.036 143.705L218.085 136.566C219.235 136.859 220.456 137.084 221.7 137.219Z" fill="url(#paint13_linear_458_1309)"/>
<path d="M234.684 137.737C233.042 136.228 230.082 135.643 225.597 135.913C217.99 136.408 210.548 132.354 207.918 130.733L208.036 128.404C207.66 128.177 207.331 128.346 206.956 128.591C206.697 128.749 205.97 129.267 205.594 129.987C205.57 129.987 205.57 130.01 205.57 130.01C205.43 130.235 205.336 130.505 205.312 130.798C205.265 131.361 205.453 131.879 205.899 132.307C206.017 132.397 206.157 132.487 206.298 132.577C208.951 134.244 217.075 138.838 225.762 138.298C230.34 138.005 232.218 138.771 232.97 139.469C233.791 140.19 233.768 141.248 233.768 142.239V142.689C233.791 144.018 233.531 145.842 232.242 147.059C231.117 148.14 229.26 148.937 226.771 148.869C218.249 148.599 211.027 146.264 207.27 142.66C206.777 142.187 206.183 142.014 205.69 142.487C205.197 142.96 205.197 143.725 205.69 144.176C209.893 148.207 217.547 150.685 226.703 150.955C226.889 150.977 227.077 150.977 227.264 150.977C230.176 150.977 232.455 150.234 234.003 148.77C235.529 147.329 236.304 145.212 236.28 142.667V142.262C236.278 141.025 236.304 139.178 234.684 137.737Z" fill="url(#paint14_linear_458_1309)"/>
<path d="M199.02 200.797C196.802 200.403 194.308 206.862 196.344 208.817L198.086 209.33L203.296 206.019L200.213 201.43L199.02 200.797Z" fill="#191F65"/>
<path d="M201.392 207.283L197.4 208.702C197.4 208.702 193.198 206.497 192.071 205.954C189.793 204.875 187.539 205.008 185.285 205.438C183.032 205.886 181.74 206.136 181.365 205.774C180.801 205.233 181.67 204.513 181.67 204.513C181.67 204.488 181.67 204.488 181.67 204.488L181.623 204.513C181.177 204.6 176.857 205.591 175.824 205.231C174.744 204.873 175.542 203.972 175.542 203.972C175.542 203.972 173.57 204.085 172.912 203.456C172.631 203.186 172.865 202.826 173.241 202.508C173.265 202.463 173.288 202.443 173.312 202.418C173.429 202.33 173.523 202.238 173.617 202.173C173.828 202.015 174.039 201.902 174.204 201.81C174.204 201.81 174.227 201.77 174.251 201.77C174.392 201.702 174.462 201.655 174.462 201.655C174.462 201.655 172.912 200.731 173.429 199.988C173.452 199.945 173.476 199.9 173.523 199.855C174.321 199.09 184.393 195.734 187.492 195.734C189.136 195.734 195.475 199.653 196.273 200.148C196.32 200.171 196.344 200.195 196.344 200.195L200.218 201.637L201.345 207.087L201.392 207.283Z" fill="#EDC59D"/>
<path d="M201.344 207.08L198.973 206.787C198.973 206.787 192.986 203.542 190.427 203.542C187.844 203.542 182.937 205.051 182.28 205.051C181.693 205.051 181.669 204.623 181.669 204.513C181.669 204.488 181.669 204.488 181.669 204.488L184.721 203.204C184.275 203.296 177.208 204.986 176.152 204.758C175.26 204.58 175.541 203.97 175.541 203.97L179.368 202.619C177.936 203.044 174.133 204.08 173.194 203.182C172.982 202.977 173.029 202.731 173.241 202.504C173.264 202.459 173.288 202.438 173.311 202.414C173.428 202.326 173.522 202.233 173.616 202.168C173.827 202.011 174.039 201.898 174.203 201.806C174.203 201.806 174.227 201.765 174.25 201.765C174.367 201.697 174.461 201.65 174.461 201.65L178.993 200.434C178.406 200.547 175.729 201.044 174.25 200.932C173.452 200.864 173.334 200.301 173.428 199.984C173.452 199.941 173.475 199.896 173.522 199.851C174.321 199.085 184.393 195.729 187.492 195.729C189.135 195.729 195.474 199.648 196.273 200.143C196.32 200.166 196.343 200.191 196.343 200.191L200.217 201.632L201.344 207.08Z" fill="#CC936D"/>
<path d="M253.819 188.072C253.537 192.734 252.126 197.981 248.348 203.544C240.553 215.1 231.725 221.674 214.868 216.447C202.096 212.483 196.344 208.814 196.344 208.814V208.789C196.766 208.857 197.236 208.722 197.729 208.384C198.316 207.999 198.856 207.371 199.255 206.65C199.889 205.524 200.241 204.15 200.147 202.932C200.053 201.853 199.631 201.107 199.02 200.794C200.546 201.357 219.822 208.539 229.051 205.051C236.28 202.328 237.48 184.176 237.48 183.568C237.48 182.96 243.443 163.524 243.443 163.524C243.443 163.524 251.142 167.916 252.365 174.289C252.997 177.667 254.241 182.442 253.819 188.072Z" fill="url(#paint15_linear_458_1309)"/>
<path d="M253.818 188.072C251.189 196.315 241.046 213.566 227.617 214.107C213.365 214.67 199.255 206.652 199.255 206.652C199.889 205.526 200.241 204.152 200.147 202.934C200.053 201.855 199.63 201.11 199.02 200.797C200.546 201.36 219.822 208.542 229.051 205.053C236.28 202.33 237.48 184.178 237.48 183.57C237.48 182.962 243.443 163.526 243.443 163.526C243.443 163.526 251.142 167.918 252.365 174.291C252.997 177.667 254.241 182.442 253.818 188.072Z" fill="#E6E7E8"/>
<path d="M362.675 115.871C362.675 122.249 357.284 127.418 350.637 127.418C343.988 127.418 338.603 122.249 338.603 115.871C338.603 109.495 343.988 104.327 350.637 104.327C357.284 104.324 362.675 109.495 362.675 115.871Z" fill="url(#paint16_radial_458_1309)"/>
<path d="M149.469 69.1393C149.469 75.5151 144.081 80.686 137.432 80.686C130.785 80.686 125.397 75.5173 125.397 69.1393C125.397 62.7635 130.785 57.5927 137.432 57.5927C144.079 57.5927 149.469 62.7613 149.469 69.1393Z" fill="url(#paint17_radial_458_1309)"/>
<path d="M305.726 237.452C305.726 241.65 302.177 245.055 297.8 245.055C293.421 245.055 289.872 241.65 289.872 237.452C289.872 233.252 293.421 229.849 297.8 229.849C302.177 229.849 305.726 233.252 305.726 237.452Z" fill="url(#paint18_radial_458_1309)"/>
<path d="M276.758 60.4642C276.758 64.6621 273.209 68.0673 268.832 68.0673C264.453 68.0673 260.904 64.6621 260.904 60.4642C260.904 56.2639 264.453 52.861 268.832 52.861C273.209 52.861 276.758 56.2639 276.758 60.4642Z" fill="url(#paint19_radial_458_1309)"/>
<path d="M180.228 255.749C180.228 259.949 176.678 263.352 172.301 263.352C167.923 263.352 164.375 259.949 164.375 255.749C164.375 251.551 167.925 248.146 172.301 248.146C176.68 248.146 180.228 251.548 180.228 255.749Z" fill="url(#paint20_radial_458_1309)"/>
<path d="M120.436 179.145C120.436 182.953 117.217 186.043 113.245 186.043C109.274 186.043 106.053 182.953 106.053 179.145C106.053 175.336 109.272 172.246 113.245 172.246C117.217 172.246 120.436 175.334 120.436 179.145Z" fill="url(#paint21_radial_458_1309)"/>
<path d="M169.35 98.0343C169.35 99.7369 167.914 101.117 166.139 101.117C164.364 101.117 162.927 99.7369 162.927 98.0343C162.927 96.3339 164.364 94.9534 166.139 94.9534C167.911 94.9534 169.35 96.3339 169.35 98.0343Z" fill="url(#paint22_radial_458_1309)"/>
<path d="M324.084 189.903C324.084 191.606 322.645 192.986 320.87 192.986C319.097 192.986 317.658 191.606 317.658 189.903C317.658 188.203 319.097 186.822 320.87 186.822C322.645 186.822 324.084 188.203 324.084 189.903Z" fill="url(#paint23_radial_458_1309)"/>
<path d="M304.224 61.2974C304.224 63 302.785 64.3783 301.012 64.3783C299.237 64.3783 297.8 63 297.8 61.2974C297.8 59.5948 299.237 58.2142 301.012 58.2142C302.785 58.2165 304.224 59.5948 304.224 61.2974Z" fill="url(#paint24_radial_458_1309)"/>
<path d="M140.728 222.825C140.728 224.527 139.289 225.908 137.514 225.908C135.739 225.908 134.302 224.527 134.302 222.825C134.302 221.122 135.739 219.744 137.514 219.744C139.289 219.744 140.728 221.122 140.728 222.825Z" fill="url(#paint25_radial_458_1309)"/>
<path d="M107.934 77.0827C107.934 78.783 106.495 80.1636 104.72 80.1636C102.945 80.1636 101.508 78.783 101.508 77.0827C101.508 75.3801 102.945 73.9995 104.72 73.9995C106.495 73.9995 107.934 75.3801 107.934 77.0827Z" fill="url(#paint26_radial_458_1309)"/>
<path d="M259.909 192.986C259.909 195.707 257.61 197.912 254.776 197.912C251.94 197.912 249.639 195.707 249.639 192.986C249.639 190.266 251.938 188.061 254.776 188.061C257.61 188.061 259.909 190.266 259.909 192.986Z" fill="url(#paint27_radial_458_1309)"/>
<path d="M375.096 225.908C375.096 227.608 373.659 228.989 371.886 228.989C370.109 228.989 368.672 227.608 368.672 225.908C368.672 224.203 370.109 222.825 371.886 222.825C373.659 222.825 375.096 224.205 375.096 225.908Z" fill="url(#paint28_radial_458_1309)"/>
<path d="M380.272 73.9994C380.272 75.702 378.835 77.0825 377.06 77.0825C375.285 77.0825 373.849 75.702 373.849 73.9994C373.849 72.2968 375.285 70.9185 377.06 70.9185C378.833 70.9185 380.272 72.2968 380.272 73.9994Z" fill="url(#paint29_radial_458_1309)"/>
<path d="M201.936 14.3203C201.936 16.0229 200.499 17.4012 198.724 17.4012C196.949 17.4012 195.51 16.0229 195.51 14.3203C195.51 12.6177 196.949 11.2394 198.724 11.2394C200.497 11.2394 201.936 12.6177 201.936 14.3203Z" fill="url(#paint30_radial_458_1309)"/>
<path d="M66.3116 115.871C66.3116 117.574 64.8724 118.954 63.0998 118.954C61.3248 118.954 59.8856 117.574 59.8856 115.871C59.8856 114.171 61.3248 112.79 63.0998 112.79C64.8724 112.788 66.3116 114.168 66.3116 115.871Z" fill="url(#paint31_radial_458_1309)"/>
<path d="M295.1 149.09C295.1 150.135 294.217 150.982 293.128 150.982C292.039 150.982 291.156 150.135 291.156 149.09C291.156 148.047 292.039 147.198 293.128 147.198C294.217 147.198 295.1 148.045 295.1 149.09Z" fill="url(#paint32_radial_458_1309)"/>
<path d="M151.439 149.09C151.439 150.135 150.556 150.982 149.469 150.982C148.38 150.982 147.497 150.135 147.497 149.09C147.497 148.047 148.38 147.198 149.469 147.198C150.556 147.198 151.439 148.045 151.439 149.09Z" fill="url(#paint33_radial_458_1309)"/>
<path d="M161.884 182.62C161.884 183.665 161.001 184.511 159.912 184.511C158.825 184.511 157.942 183.665 157.942 182.62C157.942 181.575 158.825 180.728 159.912 180.728C161.001 180.728 161.884 181.575 161.884 182.62Z" fill="url(#paint34_radial_458_1309)"/>
<path d="M346.006 47.242C346.006 48.287 345.123 49.1338 344.034 49.1338C342.944 49.1338 342.062 48.287 342.062 47.242C342.062 46.197 342.944 45.3502 344.034 45.3502C345.123 45.3502 346.006 46.197 346.006 47.242Z" fill="url(#paint35_radial_458_1309)"/>
<path d="M108.664 36.2673C108.664 37.31 107.781 38.1568 106.692 38.1568C105.602 38.1568 104.719 37.31 104.719 36.2673C104.719 35.2223 105.602 34.3755 106.692 34.3755C107.781 34.3777 108.664 35.2245 108.664 36.2673Z" fill="url(#paint36_radial_458_1309)"/>
<path d="M332.795 153.324C332.795 154.369 331.914 155.216 330.825 155.216C329.733 155.216 328.853 154.369 328.853 153.324C328.853 152.279 329.733 151.432 330.825 151.432C331.914 151.432 332.795 152.279 332.795 153.324Z" fill="url(#paint37_radial_458_1309)"/>
<path d="M251.614 237.452C251.614 238.497 250.731 239.344 249.641 239.344C248.552 239.344 247.669 238.497 247.669 237.452C247.669 236.407 248.552 235.561 249.641 235.561C250.731 235.563 251.614 236.41 251.614 237.452Z" fill="url(#paint38_radial_458_1309)"/>
<path d="M185.605 178.931C185.605 179.976 184.722 180.823 183.632 180.823C182.543 180.823 181.66 179.976 181.66 178.931C181.66 177.886 182.543 177.039 183.632 177.039C184.722 177.039 185.605 177.886 185.605 178.931Z" fill="url(#paint39_radial_458_1309)"/>
<path d="M332.795 233.797C332.795 234.844 331.914 235.689 330.825 235.689C329.733 235.689 328.853 234.844 328.853 233.797C328.853 232.754 329.733 231.908 330.825 231.908C331.914 231.91 332.795 232.757 332.795 233.797Z" fill="url(#paint40_radial_458_1309)"/>
<path d="M385.637 169.846C385.637 170.891 384.752 171.737 383.665 171.737C382.575 171.737 381.693 170.891 381.693 169.846C381.693 168.803 382.575 167.954 383.665 167.954C384.752 167.956 385.637 168.803 385.637 169.846Z" fill="url(#paint41_radial_458_1309)"/>
<path d="M98.2252 147.198C98.2252 148.243 97.3424 149.09 96.2531 149.09C95.1637 149.09 94.2809 148.243 94.2809 147.198C94.2809 146.155 95.1637 145.309 96.2531 145.309C97.3424 145.306 98.2252 146.153 98.2252 147.198Z" fill="url(#paint42_radial_458_1309)"/>
<path d="M312.979 85.188C312.979 86.2308 312.096 87.0776 311.007 87.0776C309.918 87.0776 309.037 86.2308 309.037 85.188C309.037 84.1431 309.918 83.2963 311.007 83.2963C312.096 83.2963 312.979 84.1431 312.979 85.188Z" fill="url(#paint43_radial_458_1309)"/>
<path d="M261.88 19.2929C261.88 20.3379 261 21.1847 259.908 21.1847C258.819 21.1847 257.938 20.3379 257.938 19.2929C257.938 18.2479 258.819 17.4011 259.908 17.4011C261 17.4011 261.88 18.2479 261.88 19.2929Z" fill="url(#paint44_radial_458_1309)"/>
<path d="M122.406 118.952C122.406 119.997 121.523 120.844 120.433 120.844C119.344 120.844 118.461 119.997 118.461 118.952C118.461 117.907 119.344 117.06 120.433 117.06C121.525 117.06 122.406 117.907 122.406 118.952Z" fill="url(#paint45_radial_458_1309)"/>
<path d="M96.2531 208.769C96.2531 210.472 94.8139 211.852 93.0413 211.852C91.2664 211.852 89.8271 210.472 89.8271 208.769C89.8271 207.069 91.2664 205.688 93.0413 205.688C94.8163 205.688 96.2531 207.069 96.2531 208.769Z" fill="url(#paint46_radial_458_1309)"/>
<path d="M362.676 190.11C357.271 190.11 352.895 185.91 352.895 180.728C352.895 175.546 357.271 171.346 362.676 171.346C368.078 171.346 372.454 175.546 372.454 180.728C372.454 185.91 368.078 190.11 362.676 190.11Z" fill="url(#paint47_radial_458_1309)"/>
<path d="M274.291 141.018C270.732 141.018 267.849 138.253 267.849 134.838C267.849 131.426 270.734 128.661 274.291 128.661C277.848 128.661 280.731 131.426 280.731 134.838C280.731 138.253 277.846 141.018 274.291 141.018Z" fill="url(#paint48_radial_458_1309)"/>
<path d="M169.351 131.309C165.794 131.309 162.911 128.544 162.911 125.132C162.911 121.718 165.794 118.952 169.351 118.952C172.91 118.952 175.793 121.718 175.793 125.132C175.791 128.544 172.908 131.309 169.351 131.309Z" fill="url(#paint49_radial_458_1309)"/>
<path d="M204.78 57.309C201.554 57.309 198.936 54.8001 198.936 51.7034C198.936 48.6068 201.554 46.0979 204.78 46.0979C208.005 46.0979 210.623 48.6068 210.623 51.7034C210.623 54.8001 208.005 57.309 204.78 57.309Z" fill="url(#paint50_radial_458_1309)"/>
<path d="M268.246 86.1317C266.804 86.1317 265.635 85.0101 265.635 83.6273C265.635 82.2445 266.804 81.1229 268.246 81.1229C269.687 81.1229 270.854 82.2445 270.854 83.6273C270.854 85.0078 269.687 86.1317 268.246 86.1317Z" fill="url(#paint51_radial_458_1309)"/>
<path d="M190.415 206.749C188.973 206.749 187.804 205.627 187.804 204.247C187.804 202.862 188.973 201.743 190.415 201.743C191.857 201.743 193.026 202.862 193.026 204.247C193.026 205.627 191.859 206.749 190.415 206.749Z" fill="url(#paint52_radial_458_1309)"/>
<path d="M299.368 191.268C297.929 191.268 296.757 190.146 296.757 188.764C296.757 187.381 297.929 186.259 299.368 186.259C300.81 186.259 301.979 187.381 301.979 188.764C301.979 190.146 300.81 191.268 299.368 191.268Z" fill="url(#paint53_radial_458_1309)"/>
<path d="M162.525 63.8199C161.084 63.8199 159.915 62.6983 159.915 61.3155C159.915 59.9327 161.084 58.8112 162.525 58.8112C163.967 58.8112 165.136 59.9327 165.136 61.3155C165.136 62.6983 163.967 63.8199 162.525 63.8199Z" fill="url(#paint54_radial_458_1309)"/>
<path d="M285.995 38.2536C284.554 38.2536 283.385 37.132 283.385 35.7492C283.385 34.3664 284.554 33.2449 285.995 33.2449C287.437 33.2449 288.606 34.3664 288.606 35.7492C288.606 37.132 287.437 38.2536 285.995 38.2536Z" fill="url(#paint55_radial_458_1309)"/>
<path d="M187.805 156.725C185.501 156.725 183.633 154.932 183.633 152.723C183.633 150.513 185.501 148.721 187.805 148.721C190.108 148.721 191.977 150.511 191.977 152.723C191.977 154.932 190.108 156.725 187.805 156.725Z" fill="url(#paint56_radial_458_1309)"/>
<path d="M159.914 246.517C158.473 246.517 157.304 245.393 157.304 244.013C157.304 242.63 158.473 241.508 159.914 241.508C161.356 241.508 162.525 242.63 162.525 244.013C162.525 245.393 161.356 246.517 159.914 246.517Z" fill="url(#paint57_radial_458_1309)"/>
<path d="M320.574 273.788C319.133 273.788 317.964 272.667 317.964 271.284C317.964 269.903 319.133 268.779 320.574 268.779C322.014 268.779 323.185 269.903 323.185 271.284C323.185 272.667 322.014 273.788 320.574 273.788Z" fill="url(#paint58_radial_458_1309)"/>
<path d="M339.167 111.531C337.725 111.531 336.558 110.41 336.558 109.027C336.558 107.644 337.725 106.522 339.167 106.522C340.608 106.522 341.778 107.644 341.778 109.027C341.778 110.41 340.608 111.531 339.167 111.531Z" fill="url(#paint59_radial_458_1309)"/>
<path d="M253.135 5.80952C251.693 5.80952 250.524 4.68796 250.524 3.30515C250.524 1.92234 251.693 0.800781 253.135 0.800781C254.574 0.800781 255.746 1.92234 255.746 3.30515C255.746 4.68796 254.574 5.80952 253.135 5.80952Z" fill="url(#paint60_radial_458_1309)"/>
<path d="M224.992 184.156C224.109 184.156 223.391 183.466 223.391 182.617C223.391 181.768 224.109 181.079 224.992 181.079C225.879 181.079 226.595 181.768 226.595 182.617C226.593 183.469 225.879 184.156 224.992 184.156Z" fill="url(#paint61_radial_458_1309)"/>
<path d="M238.503 66.894C237.618 66.894 236.9 66.2048 236.9 65.3558C236.9 64.5067 237.618 63.8198 238.503 63.8198C239.389 63.8198 240.107 64.5067 240.107 65.3558C240.105 66.2048 239.389 66.894 238.503 66.894Z" fill="url(#paint62_radial_458_1309)"/>
<path d="M174.41 84.1949C173.527 84.1949 172.809 83.508 172.809 82.6589C172.809 81.8099 173.527 81.1207 174.41 81.1207C175.295 81.1207 176.013 81.8099 176.013 82.6589C176.013 83.508 175.295 84.1949 174.41 84.1949Z" fill="url(#paint63_radial_458_1309)"/>
<path d="M311.277 223.838C310.392 223.838 309.673 223.151 309.673 222.3C309.673 221.453 310.392 220.762 311.277 220.762C312.162 220.762 312.878 221.453 312.878 222.3C312.876 223.151 312.162 223.838 311.277 223.838Z" fill="url(#paint64_radial_458_1309)"/>
<path d="M221.404 213.539C220.519 213.539 219.801 212.85 219.801 212.001C219.801 211.152 220.519 210.465 221.404 210.465C222.289 210.465 223.008 211.152 223.008 212.001C223.008 212.852 222.289 213.539 221.404 213.539Z" fill="url(#paint65_radial_458_1309)"/>
<path d="M236.9 138.109C236.014 138.109 235.298 137.42 235.298 136.57C235.298 135.721 236.014 135.035 236.9 135.035C237.785 135.035 238.503 135.721 238.503 136.57C238.503 137.42 237.785 138.109 236.9 138.109Z" fill="url(#paint66_radial_458_1309)"/>
<path d="M212.225 100.602C211.339 100.602 210.623 99.9147 210.623 99.0657C210.623 98.2166 211.339 97.5275 212.225 97.5275C213.11 97.5275 213.828 98.2166 213.828 99.0657C213.828 99.9147 213.11 100.602 212.225 100.602Z" fill="url(#paint67_radial_458_1309)"/>
<path d="M153.228 213.539C152.343 213.539 151.627 212.85 151.627 212.001C151.627 211.152 152.343 210.465 153.228 210.465C154.113 210.465 154.831 211.152 154.831 212.001C154.829 212.852 154.113 213.539 153.228 213.539Z" fill="url(#paint68_radial_458_1309)"/>
<path d="M207.408 254.728C206.523 254.728 205.805 254.041 205.805 253.19C205.805 252.343 206.523 251.654 207.408 251.654C208.294 251.654 209.01 252.343 209.01 253.19C209.01 254.044 208.294 254.728 207.408 254.728Z" fill="url(#paint69_radial_458_1309)"/>
<path d="M226.593 30.6866C225.71 30.6866 224.989 29.9974 224.989 29.1484C224.989 28.2993 225.71 27.6124 226.593 27.6124C227.478 27.6124 228.196 28.2993 228.196 29.1484C228.196 29.9997 227.478 30.6866 226.593 30.6866Z" fill="url(#paint70_radial_458_1309)"/>
<path d="M279.128 198.094C280.013 198.094 280.731 197.405 280.731 196.556C280.731 195.706 280.013 195.018 279.128 195.018C278.242 195.018 277.524 195.706 277.524 196.556C277.524 197.405 278.242 198.094 279.128 198.094Z" fill="url(#paint71_radial_458_1309)"/>
<path d="M350.638 191.441C349.753 191.441 349.034 190.752 349.034 189.903C349.034 189.054 349.753 188.365 350.638 188.365C351.523 188.365 352.241 189.054 352.241 189.903C352.241 190.752 351.523 191.441 350.638 191.441Z" fill="url(#paint72_radial_458_1309)"/>
<path d="M323.943 19.3629C323.06 19.3629 322.339 18.6737 322.339 17.8269C322.339 16.9778 323.06 16.2887 323.943 16.2887C324.828 16.2887 325.546 16.9778 325.546 17.8269C325.546 18.6737 324.828 19.3629 323.943 19.3629Z" fill="url(#paint73_radial_458_1309)"/>
<path d="M174.434 29.1506C172.992 29.1506 171.823 28.029 171.823 26.6462C171.823 25.2634 172.992 24.1418 174.434 24.1418C175.875 24.1418 177.044 25.2634 177.044 26.6462C177.044 28.029 175.875 29.1506 174.434 29.1506Z" fill="url(#paint74_radial_458_1309)"/>
<path d="M120.436 119.234C120.431 119.234 120.424 119.234 120.42 119.234L63.0834 116.153C62.966 116.146 62.8651 116.074 62.8252 115.97C62.7852 115.864 62.8134 115.747 62.8956 115.668L104.518 76.88C104.588 76.8124 104.692 76.7831 104.788 76.8079C104.884 76.8282 104.964 76.8957 104.997 76.9858L120.711 118.855C120.744 118.943 120.73 119.042 120.669 119.119C120.615 119.193 120.528 119.234 120.436 119.234ZM63.7831 115.626L120.009 118.648L104.6 77.5894L63.7831 115.626Z" fill="#27AAE1"/>
<path opacity="0.7" d="M109.601 196.641V145.572C115.879 137.01 125.298 128.967 137.859 122.001C151.756 114.301 168.029 108.725 185.393 105.318V156.387C168.029 159.792 151.756 165.371 137.859 173.071C125.301 180.037 115.881 188.077 109.601 196.641Z" fill="#5977FF"/>
<path d="M362.687 181.009C362.682 181.009 362.677 181.009 362.673 181.009C362.602 181.009 362.532 180.985 362.478 180.937L330.698 153.592L293.093 149.369C293.008 149.36 292.933 149.315 292.884 149.248C292.837 149.18 292.823 149.095 292.841 149.016L310.72 85.1138C310.748 85.0215 310.819 84.9472 310.913 84.9179C311.006 84.8863 311.112 84.9066 311.187 84.9652L350.819 115.65C350.873 115.693 350.912 115.752 350.924 115.819L362.943 180.593C362.966 180.633 362.978 180.678 362.978 180.726C362.98 180.883 362.851 181.009 362.687 181.009ZM293.499 148.849L330.857 153.045C330.916 153.052 330.975 153.076 331.017 153.115L362.234 179.974L350.365 116.027L311.175 85.6768L293.499 148.849Z" fill="#27AAE1"/>
<path d="M238.503 65.6374C238.463 65.6374 238.426 65.6306 238.388 65.6148L204.666 51.9624C204.638 51.9512 204.612 51.9354 204.589 51.9151L174.241 26.8602C174.168 26.7994 174.131 26.7071 174.142 26.6147C174.152 26.5224 174.21 26.4413 174.295 26.3985L198.585 14.0726C198.675 14.0253 198.778 14.0298 198.865 14.0749L226.626 28.8488L259.821 19.025C259.904 19.0048 259.986 19.0115 260.059 19.0521C260.129 19.0926 260.181 19.1579 260.197 19.2367L269.119 60.4079C269.135 60.4822 269.119 60.5611 269.074 60.6241C269.027 60.6872 268.959 60.73 268.879 60.7435L238.553 65.6351C238.534 65.6351 238.52 65.6374 238.503 65.6374ZM204.936 51.4625L238.536 65.0653L268.48 60.2345L259.685 19.6534L226.68 29.4209C226.597 29.4411 226.52 29.4321 226.449 29.3984L198.717 14.6401L174.948 26.7026L204.936 51.4625Z" fill="#27AAE1"/>
<path d="M220.38 143.48C216.818 143.48 213.25 143.376 209.69 143.167C186.754 141.816 165.119 136.084 148.771 127.03C129.564 116.394 118.984 102.232 118.984 87.1587C118.984 72.0852 129.561 57.9238 148.771 47.287C148.91 47.2104 149.088 47.2532 149.173 47.3906C149.253 47.5234 149.206 47.6969 149.065 47.7757C130.045 58.3089 119.571 72.2946 119.571 87.1587C119.571 102.023 130.045 116.008 149.065 126.542C182.618 145.124 234.073 148.347 274.19 134.368C274.34 134.316 274.509 134.39 274.566 134.537C274.62 134.681 274.542 134.843 274.392 134.897C258.279 140.512 239.43 143.48 220.38 143.48Z" fill="url(#paint75_linear_458_1309)"/>
<path d="M227.264 97.4982C200.307 97.4982 173.351 91.8161 152.829 80.4496C146.985 77.2133 141.846 73.6144 137.549 69.7542C137.432 69.6484 137.425 69.4704 137.535 69.3556C137.648 69.2407 137.833 69.2385 137.951 69.3421C142.214 73.1729 147.319 76.7471 153.122 79.9609C194.003 102.604 260.519 102.602 301.406 79.9609C322.067 68.5178 333.194 52.6988 331.933 36.5556C331.921 36.4002 332.043 36.265 332.203 36.2538C332.212 36.2538 332.219 36.2538 332.226 36.2538C332.377 36.2538 332.508 36.3664 332.52 36.515C333.797 52.8813 322.563 68.8939 301.7 80.4496C281.178 91.8161 254.22 97.4982 227.264 97.4982Z" fill="url(#paint76_linear_458_1309)"/>
<path d="M212.466 271.89C189.321 271.89 166.176 267.011 148.556 257.253C131.374 247.736 121.91 235.052 121.91 221.532C121.91 208.015 131.372 195.328 148.556 185.813C160.069 179.435 174.447 174.897 190.133 172.688C190.446 172.643 190.751 172.854 190.8 173.163C190.847 173.469 190.624 173.758 190.305 173.803C174.762 175.987 160.53 180.48 149.143 186.786C132.339 196.092 123.084 208.431 123.084 221.53C123.084 234.628 132.337 246.97 149.143 256.278C184.059 275.612 240.87 275.612 275.791 256.278C285.676 250.801 292.909 244.339 297.29 237.072C297.455 236.801 297.816 236.711 298.093 236.867C298.375 237.022 298.469 237.369 298.309 237.635C293.82 245.078 286.441 251.677 276.378 257.253C258.758 267.009 235.611 271.89 212.466 271.89Z" fill="url(#paint77_linear_458_1309)"/>
<path opacity="0.5" d="M219.744 174.591V252.958C173.391 253.447 126.782 243.891 91.4098 224.293C89.7968 223.397 88.2402 222.498 86.7118 221.577V143.21C88.2402 144.133 89.7968 145.029 91.4098 145.924C126.782 165.524 173.391 175.08 219.744 174.591Z" fill="#5977FF"/>
<path opacity="0.5" d="M327.07 178.084V224.212C321.398 231.948 312.89 239.209 301.547 245.499C288.996 252.454 274.296 257.492 258.613 260.566V214.442C274.298 211.366 288.998 206.328 301.547 199.376C312.89 193.081 321.398 185.818 327.07 178.084Z" fill="#5977FF"/>
<defs>
<filter id="filter0_bd_458_1309" x="-6" y="97.4333" width="450" height="412.967" filterUnits="userSpaceOnUse" color-interpolation-filters="sRGB">
<feFlood flood-opacity="0" result="BackgroundImageFix"/>
<feGaussianBlur in="BackgroundImageFix" stdDeviation="12.5"/>
<feComposite in2="SourceAlpha" operator="in" result="effect1_backgroundBlur_458_1309"/>
<feColorMatrix in="SourceAlpha" type="matrix" values="0 0 0 0 0 0 0 0 0 0 0 0 0 0 0 0 0 0 127 0" result="hardAlpha"/>
<feOffset dy="9"/>
<feGaussianBlur stdDeviation="9.2"/>
<feComposite in2="hardAlpha" operator="out"/>
<feColorMatrix type="matrix" values="0 0 0 0 0 0 0 0 0 0 0 0 0 0 0 0 0 0 0.25 0"/>
<feBlend mode="normal" in2="effect1_backgroundBlur_458_1309" result="effect2_dropShadow_458_1309"/>
<feBlend mode="normal" in="SourceGraphic" in2="effect2_dropShadow_458_1309" result="shape"/>
</filter>
<linearGradient id="paint0_linear_458_1309" x1="28.375" y1="147.759" x2="254.491" y2="537.851" gradientUnits="userSpaceOnUse">
<stop stop-color="white" stop-opacity="0.2"/>
<stop offset="0.52" stop-opacity="0"/>
<stop offset="1" stop-color="white" stop-opacity="0.2"/>
</linearGradient>
<linearGradient id="paint1_linear_458_1309" x1="141.918" y1="337.207" x2="313.314" y2="337.207" gradientUnits="userSpaceOnUse">
<stop stop-color="#939598"/>
<stop offset="0.0774" stop-color="#7C7D80"/>
<stop offset="0.2477" stop-color="#4E4D4F"/>
<stop offset="0.3776" stop-color="#322F30"/>
<stop offset="0.4506" stop-color="#272425"/>
<stop offset="0.5497" stop-color="#434142"/>
<stop offset="0.7601" stop-color="#79797B"/>
<stop offset="0.9164" stop-color="#9A9C9F"/>
<stop offset="1" stop-color="#A7A9AC"/>
</linearGradient>
<linearGradient id="paint2_linear_458_1309" x1="159.963" y1="337.207" x2="295.35" y2="337.207" gradientUnits="userSpaceOnUse">
<stop stop-color="#939598"/>
<stop offset="0.0774" stop-color="#7C7D80"/>
<stop offset="0.2477" stop-color="#4E4D4F"/>
<stop offset="0.3776" stop-color="#322F30"/>
<stop offset="0.4506" stop-color="#272425"/>
<stop offset="0.5497" stop-color="#434142"/>
<stop offset="0.7601" stop-color="#79797B"/>
<stop offset="0.9164" stop-color="#9A9C9F"/>
<stop offset="1" stop-color="#A7A9AC"/>
</linearGradient>
<linearGradient id="paint3_linear_458_1309" x1="309.237" y1="202.599" x2="197.615" y2="135.416" gradientUnits="userSpaceOnUse">
<stop/>
<stop offset="0.2569" stop-color="#070707"/>
<stop offset="0.3476" stop-color="#121212"/>
<stop offset="0.509" stop-color="#2F3031"/>
<stop offset="0.7222" stop-color="#5F6062"/>
<stop offset="0.9767" stop-color="#A1A3A5"/>
<stop offset="1" stop-color="#A7A9AC"/>
</linearGradient>
<linearGradient id="paint4_linear_458_1309" x1="210.72" y1="154.226" x2="177.545" y2="206.679" gradientUnits="userSpaceOnUse">
<stop stop-color="#324DE6"/>
<stop offset="0.1189" stop-color="#374EE5"/>
<stop offset="0.2664" stop-color="#4751E3"/>
<stop offset="0.4288" stop-color="#6057DF"/>
<stop offset="0.6022" stop-color="#835ED9"/>
<stop offset="0.7841" stop-color="#B068D1"/>
<stop offset="0.9706" stop-color="#E774C9"/>
<stop offset="1" stop-color="#F076C7"/>
</linearGradient>
<linearGradient id="paint5_linear_458_1309" x1="217.649" y1="338.879" x2="217.649" y2="311.358" gradientUnits="userSpaceOnUse">
<stop stop-color="#567199"/>
<stop offset="0.3849" stop-color="#384E80"/>
<stop offset="0.778" stop-color="#1F2F6B"/>
<stop offset="1" stop-color="#162463"/>
</linearGradient>
<linearGradient id="paint6_linear_458_1309" x1="227.827" y1="343.209" x2="246.135" y2="324.124" gradientUnits="userSpaceOnUse">
<stop stop-color="#567199"/>
<stop offset="0.3849" stop-color="#384E80"/>
<stop offset="0.778" stop-color="#1F2F6B"/>
<stop offset="1" stop-color="#162463"/>
</linearGradient>
<linearGradient id="paint7_linear_458_1309" x1="228.21" y1="163.003" x2="229.278" y2="283.271" gradientUnits="userSpaceOnUse">
<stop stop-color="#324DE6"/>
<stop offset="0.1189" stop-color="#374EE5"/>
<stop offset="0.2664" stop-color="#4751E3"/>
<stop offset="0.4288" stop-color="#6057DF"/>
<stop offset="0.6022" stop-color="#835ED9"/>
<stop offset="0.7841" stop-color="#B068D1"/>
<stop offset="0.9706" stop-color="#E774C9"/>
<stop offset="1" stop-color="#F076C7"/>
</linearGradient>
<linearGradient id="paint8_linear_458_1309" x1="227.418" y1="161.636" x2="228.498" y2="283.275" gradientUnits="userSpaceOnUse">
<stop stop-color="#324DE6"/>
<stop offset="0.1189" stop-color="#374EE5"/>
<stop offset="0.2664" stop-color="#4751E3"/>
<stop offset="0.4288" stop-color="#6057DF"/>
<stop offset="0.6022" stop-color="#835ED9"/>
<stop offset="0.7841" stop-color="#B068D1"/>
<stop offset="0.9706" stop-color="#E774C9"/>
<stop offset="1" stop-color="#F076C7"/>
</linearGradient>
<linearGradient id="paint9_linear_458_1309" x1="223.861" y1="140.417" x2="223.861" y2="124.089" gradientUnits="userSpaceOnUse">
<stop stop-color="#D1D3D4"/>
<stop offset="0.2584" stop-color="#C6C8C9"/>
<stop offset="0.7098" stop-color="#A9ABAD"/>
<stop offset="1" stop-color="#939598"/>
</linearGradient>
<linearGradient id="paint10_linear_458_1309" x1="215.873" y1="121.291" x2="244.171" y2="121.291" gradientUnits="userSpaceOnUse">
<stop stop-color="#939598"/>
<stop offset="0.7312" stop-color="#BCBEC0"/>
<stop offset="0.8295" stop-color="#B9BBBD"/>
<stop offset="0.9085" stop-color="#AFB1B3"/>
<stop offset="0.9805" stop-color="#9EA0A3"/>
<stop offset="1" stop-color="#989A9D"/>
</linearGradient>
<linearGradient id="paint11_linear_458_1309" x1="237.559" y1="145.862" x2="248.068" y2="134.907" gradientUnits="userSpaceOnUse">
<stop stop-color="#F1F2F2"/>
<stop offset="0.187" stop-color="#E6E7E8"/>
<stop offset="0.5149" stop-color="#C9CACC"/>
<stop offset="0.9424" stop-color="#9A9C9F"/>
<stop offset="1" stop-color="#939598"/>
</linearGradient>
<linearGradient id="paint12_linear_458_1309" x1="212.591" y1="143.202" x2="234.146" y2="143.202" gradientUnits="userSpaceOnUse">
<stop stop-color="#A7A9AC"/>
<stop offset="0.0893" stop-color="#949699"/>
<stop offset="0.4088" stop-color="#555658"/>
<stop offset="0.6779" stop-color="#272728"/>
<stop offset="0.8831" stop-color="#0B0B0B"/>
<stop offset="1"/>
</linearGradient>
<linearGradient id="paint13_linear_458_1309" x1="208.036" y1="140.947" x2="221.7" y2="140.947" gradientUnits="userSpaceOnUse">
<stop stop-color="#A7A9AC"/>
<stop offset="0.0893" stop-color="#949699"/>
<stop offset="0.4088" stop-color="#555658"/>
<stop offset="0.6779" stop-color="#272728"/>
<stop offset="0.8831" stop-color="#0B0B0B"/>
<stop offset="1"/>
</linearGradient>
<linearGradient id="paint14_linear_458_1309" x1="213.92" y1="149.372" x2="223.793" y2="131.544" gradientUnits="userSpaceOnUse">
<stop stop-color="#F1F2F2"/>
<stop offset="0.187" stop-color="#E6E7E8"/>
<stop offset="0.5149" stop-color="#C9CACC"/>
<stop offset="0.9424" stop-color="#9A9C9F"/>
<stop offset="1" stop-color="#939598"/>
</linearGradient>
<linearGradient id="paint15_linear_458_1309" x1="248.238" y1="166.452" x2="210.143" y2="226.684" gradientUnits="userSpaceOnUse">
<stop stop-color="#324DE6"/>
<stop offset="0.1189" stop-color="#374EE5"/>
<stop offset="0.2664" stop-color="#4751E3"/>
<stop offset="0.4288" stop-color="#6057DF"/>
<stop offset="0.6022" stop-color="#835ED9"/>
<stop offset="0.7841" stop-color="#B068D1"/>
<stop offset="0.9706" stop-color="#E774C9"/>
<stop offset="1" stop-color="#F076C7"/>
</linearGradient>
<radialGradient id="paint16_radial_458_1309" cx="0" cy="0" r="1" gradientUnits="userSpaceOnUse" gradientTransform="translate(350.64 115.87) scale(12.0361 11.5455)">
<stop stop-color="white"/>
<stop offset="1"/>
</radialGradient>
<radialGradient id="paint17_radial_458_1309" cx="0" cy="0" r="1" gradientUnits="userSpaceOnUse" gradientTransform="translate(137.432 69.138) scale(12.0366 11.546)">
<stop stop-color="white"/>
<stop offset="1"/>
</radialGradient>
<radialGradient id="paint18_radial_458_1309" cx="0" cy="0" r="1" gradientUnits="userSpaceOnUse" gradientTransform="translate(297.798 237.453) scale(7.92672 7.60364)">
<stop stop-color="white"/>
<stop offset="1"/>
</radialGradient>
<radialGradient id="paint19_radial_458_1309" cx="0" cy="0" r="1" gradientUnits="userSpaceOnUse" gradientTransform="translate(268.83 60.4633) scale(7.92673 7.60364)">
<stop stop-color="white"/>
<stop offset="1"/>
</radialGradient>
<radialGradient id="paint20_radial_458_1309" cx="0" cy="0" r="1" gradientUnits="userSpaceOnUse" gradientTransform="translate(172.302 255.748) scale(7.92649 7.60342)">
<stop stop-color="white"/>
<stop offset="1"/>
</radialGradient>
<radialGradient id="paint21_radial_458_1309" cx="0" cy="0" r="1" gradientUnits="userSpaceOnUse" gradientTransform="translate(113.245 179.145) scale(7.19045 6.89737)">
<stop stop-color="white"/>
<stop offset="1"/>
</radialGradient>
<radialGradient id="paint22_radial_458_1309" cx="0" cy="0" r="1" gradientUnits="userSpaceOnUse" gradientTransform="translate(166.137 98.0352) scale(3.21253 3.08159)">
<stop stop-color="white"/>
<stop offset="1"/>
</radialGradient>
<radialGradient id="paint23_radial_458_1309" cx="0" cy="0" r="1" gradientUnits="userSpaceOnUse" gradientTransform="translate(320.87 189.904) scale(3.213 3.08204)">
<stop stop-color="white"/>
<stop offset="1"/>
</radialGradient>
<radialGradient id="paint24_radial_458_1309" cx="0" cy="0" r="1" gradientUnits="userSpaceOnUse" gradientTransform="translate(301.011 61.2972) scale(3.21252 3.08159)">
<stop stop-color="white"/>
<stop offset="1"/>
</radialGradient>
<radialGradient id="paint25_radial_458_1309" cx="0" cy="0" r="1" gradientUnits="userSpaceOnUse" gradientTransform="translate(137.516 222.827) scale(3.213 3.08205)">
<stop stop-color="white"/>
<stop offset="1"/>
</radialGradient>
<radialGradient id="paint26_radial_458_1309" cx="0" cy="0" r="1" gradientUnits="userSpaceOnUse" gradientTransform="translate(104.721 77.082) scale(3.21276 3.08181)">
<stop stop-color="white"/>
<stop offset="1"/>
</radialGradient>
<radialGradient id="paint27_radial_458_1309" cx="0" cy="0" r="1" gradientUnits="userSpaceOnUse" gradientTransform="translate(254.775 192.985) scale(5.13399 4.92472)">
<stop stop-color="white"/>
<stop offset="1"/>
</radialGradient>
<radialGradient id="paint28_radial_458_1309" cx="0" cy="0" r="1" gradientUnits="userSpaceOnUse" gradientTransform="translate(371.884 225.908) scale(3.21277 3.08181)">
<stop stop-color="white"/>
<stop offset="1"/>
</radialGradient>
<radialGradient id="paint29_radial_458_1309" cx="0" cy="0" r="1" gradientUnits="userSpaceOnUse" gradientTransform="translate(377.059 74.0005) scale(3.21254 3.08159)">
<stop stop-color="white"/>
<stop offset="1"/>
</radialGradient>
<radialGradient id="paint30_radial_458_1309" cx="0" cy="0" r="1" gradientUnits="userSpaceOnUse" gradientTransform="translate(198.722 14.3198) scale(3.21253 3.08159)">
<stop stop-color="white"/>
<stop offset="1"/>
</radialGradient>
<radialGradient id="paint31_radial_458_1309" cx="0" cy="0" r="1" gradientUnits="userSpaceOnUse" gradientTransform="translate(63.0986 115.871) scale(3.21277 3.08181)">
<stop stop-color="white"/>
<stop offset="1"/>
</radialGradient>
<radialGradient id="paint32_radial_458_1309" cx="0" cy="0" r="1" gradientUnits="userSpaceOnUse" gradientTransform="translate(293.129 149.089) scale(1.97193 1.89156)">
<stop stop-color="white"/>
<stop offset="1"/>
</radialGradient>
<radialGradient id="paint33_radial_458_1309" cx="0" cy="0" r="1" gradientUnits="userSpaceOnUse" gradientTransform="translate(149.468 149.089) scale(1.97147 1.89111)">
<stop stop-color="white"/>
<stop offset="1"/>
</radialGradient>
<radialGradient id="paint34_radial_458_1309" cx="0" cy="0" r="1" gradientUnits="userSpaceOnUse" gradientTransform="translate(159.914 182.619) scale(1.97147 1.89111)">
<stop stop-color="white"/>
<stop offset="1"/>
</radialGradient>
<radialGradient id="paint35_radial_458_1309" cx="0" cy="0" r="1" gradientUnits="userSpaceOnUse" gradientTransform="translate(344.033 47.2418) scale(1.97195 1.89156)">
<stop stop-color="white"/>
<stop offset="1"/>
</radialGradient>
<radialGradient id="paint36_radial_458_1309" cx="0" cy="0" r="1" gradientUnits="userSpaceOnUse" gradientTransform="translate(106.692 36.2677) scale(1.97147 1.89111)">
<stop stop-color="white"/>
<stop offset="1"/>
</radialGradient>
<radialGradient id="paint37_radial_458_1309" cx="0" cy="0" r="1" gradientUnits="userSpaceOnUse" gradientTransform="translate(330.824 153.324) scale(1.97124 1.89089)">
<stop stop-color="white"/>
<stop offset="1"/>
</radialGradient>
<radialGradient id="paint38_radial_458_1309" cx="0" cy="0" r="1" gradientUnits="userSpaceOnUse" gradientTransform="translate(249.641 237.453) scale(1.9717 1.89134)">
<stop stop-color="white"/>
<stop offset="1"/>
</radialGradient>
<radialGradient id="paint39_radial_458_1309" cx="0" cy="0" r="1" gradientUnits="userSpaceOnUse" gradientTransform="translate(183.633 178.93) scale(1.97194 1.89156)">
<stop stop-color="white"/>
<stop offset="1"/>
</radialGradient>
<radialGradient id="paint40_radial_458_1309" cx="0" cy="0" r="1" gradientUnits="userSpaceOnUse" gradientTransform="translate(330.824 233.799) scale(1.97077 1.89044)">
<stop stop-color="white"/>
<stop offset="1"/>
</radialGradient>
<radialGradient id="paint41_radial_458_1309" cx="0" cy="0" r="1" gradientUnits="userSpaceOnUse" gradientTransform="translate(383.664 169.846) scale(1.9717 1.89134)">
<stop stop-color="white"/>
<stop offset="1"/>
</radialGradient>
<radialGradient id="paint42_radial_458_1309" cx="0" cy="0" r="1" gradientUnits="userSpaceOnUse" gradientTransform="translate(96.254 147.198) scale(1.97147 1.89111)">
<stop stop-color="white"/>
<stop offset="1"/>
</radialGradient>
<radialGradient id="paint43_radial_458_1309" cx="0" cy="0" r="1" gradientUnits="userSpaceOnUse" gradientTransform="translate(311.009 85.1867) scale(1.971 1.89066)">
<stop stop-color="white"/>
<stop offset="1"/>
</radialGradient>
<radialGradient id="paint44_radial_458_1309" cx="0" cy="0" r="1" gradientUnits="userSpaceOnUse" gradientTransform="translate(259.909 19.2927) scale(1.97124 1.89089)">
<stop stop-color="white"/>
<stop offset="1"/>
</radialGradient>
<radialGradient id="paint45_radial_458_1309" cx="0" cy="0" r="1" gradientUnits="userSpaceOnUse" gradientTransform="translate(120.435 118.953) scale(1.97194 1.89156)">
<stop stop-color="white"/>
<stop offset="1"/>
</radialGradient>
<radialGradient id="paint46_radial_458_1309" cx="0" cy="0" r="1" gradientUnits="userSpaceOnUse" gradientTransform="translate(93.0411 208.771) scale(3.213 3.08204)">
<stop stop-color="white"/>
<stop offset="1"/>
</radialGradient>
<radialGradient id="paint47_radial_458_1309" cx="0" cy="0" r="1" gradientUnits="userSpaceOnUse" gradientTransform="translate(362.675 180.728) rotate(90) scale(9.38192 9.78058)">
<stop stop-color="white"/>
<stop offset="1"/>
</radialGradient>
<radialGradient id="paint48_radial_458_1309" cx="0" cy="0" r="1" gradientUnits="userSpaceOnUse" gradientTransform="translate(274.289 134.839) rotate(90) scale(6.17872 6.44126)">
<stop stop-color="white"/>
<stop offset="1"/>
</radialGradient>
<radialGradient id="paint49_radial_458_1309" cx="0" cy="0" r="1" gradientUnits="userSpaceOnUse" gradientTransform="translate(169.35 125.131) rotate(90) scale(6.17849 6.44103)">
<stop stop-color="white"/>
<stop offset="1"/>
</radialGradient>
<radialGradient id="paint50_radial_458_1309" cx="0" cy="0" r="1" gradientUnits="userSpaceOnUse" gradientTransform="translate(204.78 51.7032) rotate(90) scale(5.60533 5.84351)">
<stop stop-color="white"/>
<stop offset="1"/>
</radialGradient>
<radialGradient id="paint51_radial_458_1309" cx="0" cy="0" r="1" gradientUnits="userSpaceOnUse" gradientTransform="translate(268.244 83.6259) rotate(90) scale(2.50414 2.61055)">
<stop stop-color="white"/>
<stop offset="1"/>
</radialGradient>
<radialGradient id="paint52_radial_458_1309" cx="0" cy="0" r="1" gradientUnits="userSpaceOnUse" gradientTransform="translate(190.415 204.244) rotate(90) scale(2.50437 2.61078)">
<stop stop-color="white"/>
<stop offset="1"/>
</radialGradient>
<radialGradient id="paint53_radial_458_1309" cx="0" cy="0" r="1" gradientUnits="userSpaceOnUse" gradientTransform="translate(299.367 188.764) rotate(90) scale(2.50482 2.61125)">
<stop stop-color="white"/>
<stop offset="1"/>
</radialGradient>
<radialGradient id="paint54_radial_458_1309" cx="0" cy="0" r="1" gradientUnits="userSpaceOnUse" gradientTransform="translate(162.525 61.3151) rotate(90) scale(2.50459 2.61102)">
<stop stop-color="white"/>
<stop offset="1"/>
</radialGradient>
<radialGradient id="paint55_radial_458_1309" cx="0" cy="0" r="1" gradientUnits="userSpaceOnUse" gradientTransform="translate(285.996 35.7495) rotate(90) scale(2.50482 2.61126)">
<stop stop-color="white"/>
<stop offset="1"/>
</radialGradient>
<radialGradient id="paint56_radial_458_1309" cx="0" cy="0" r="1" gradientUnits="userSpaceOnUse" gradientTransform="translate(187.805 152.722) rotate(90) scale(4.00226 4.17232)">
<stop stop-color="white"/>
<stop offset="1"/>
</radialGradient>
<radialGradient id="paint57_radial_458_1309" cx="0" cy="0" r="1" gradientUnits="userSpaceOnUse" gradientTransform="translate(159.914 244.012) rotate(90) scale(2.50482 2.61125)">
<stop stop-color="white"/>
<stop offset="1"/>
</radialGradient>
<radialGradient id="paint58_radial_458_1309" cx="0" cy="0" r="1" gradientUnits="userSpaceOnUse" gradientTransform="translate(320.574 271.284) rotate(90) scale(2.50504 2.61149)">
<stop stop-color="white"/>
<stop offset="1"/>
</radialGradient>
<radialGradient id="paint59_radial_458_1309" cx="0" cy="0" r="1" gradientUnits="userSpaceOnUse" gradientTransform="translate(339.167 109.027) rotate(90) scale(2.50392 2.6103)">
<stop stop-color="white"/>
<stop offset="1"/>
</radialGradient>
<radialGradient id="paint60_radial_458_1309" cx="0" cy="0" r="1" gradientUnits="userSpaceOnUse" gradientTransform="translate(253.135 3.30515) rotate(90) scale(2.50482 2.61125)">
<stop stop-color="white"/>
<stop offset="1"/>
</radialGradient>
<radialGradient id="paint61_radial_458_1309" cx="0" cy="0" r="1" gradientUnits="userSpaceOnUse" gradientTransform="translate(224.993 182.619) rotate(90) scale(1.53686 1.60216)">
<stop stop-color="white"/>
<stop offset="1"/>
</radialGradient>
<radialGradient id="paint62_radial_458_1309" cx="0" cy="0" r="1" gradientUnits="userSpaceOnUse" gradientTransform="translate(238.503 65.3562) rotate(90) scale(1.53708 1.60239)">
<stop stop-color="white"/>
<stop offset="1"/>
</radialGradient>
<radialGradient id="paint63_radial_458_1309" cx="0" cy="0" r="1" gradientUnits="userSpaceOnUse" gradientTransform="translate(174.41 82.6585) rotate(90) scale(1.53686 1.60216)">
<stop stop-color="white"/>
<stop offset="1"/>
</radialGradient>
<radialGradient id="paint64_radial_458_1309" cx="0" cy="0" r="1" gradientUnits="userSpaceOnUse" gradientTransform="translate(311.275 222.3) rotate(90) scale(1.53685 1.60216)">
<stop stop-color="white"/>
<stop offset="1"/>
</radialGradient>
<radialGradient id="paint65_radial_458_1309" cx="0" cy="0" r="1" gradientUnits="userSpaceOnUse" gradientTransform="translate(221.406 212.004) rotate(90) scale(1.53685 1.60216)">
<stop stop-color="white"/>
<stop offset="1"/>
</radialGradient>
<radialGradient id="paint66_radial_458_1309" cx="0" cy="0" r="1" gradientUnits="userSpaceOnUse" gradientTransform="translate(236.901 136.571) rotate(90) scale(1.53641 1.60168)">
<stop stop-color="white"/>
<stop offset="1"/>
</radialGradient>
<radialGradient id="paint67_radial_458_1309" cx="0" cy="0" r="1" gradientUnits="userSpaceOnUse" gradientTransform="translate(212.226 99.0645) rotate(90) scale(1.53686 1.60215)">
<stop stop-color="white"/>
<stop offset="1"/>
</radialGradient>
<radialGradient id="paint68_radial_458_1309" cx="0" cy="0" r="1" gradientUnits="userSpaceOnUse" gradientTransform="translate(153.228 212.004) rotate(90) scale(1.53663 1.60192)">
<stop stop-color="white"/>
<stop offset="1"/>
</radialGradient>
<radialGradient id="paint69_radial_458_1309" cx="0" cy="0" r="1" gradientUnits="userSpaceOnUse" gradientTransform="translate(207.407 253.193) rotate(90) scale(1.53663 1.60192)">
<stop stop-color="white"/>
<stop offset="1"/>
</radialGradient>
<radialGradient id="paint70_radial_458_1309" cx="0" cy="0" r="1" gradientUnits="userSpaceOnUse" gradientTransform="translate(226.594 29.1506) rotate(90) scale(1.53708 1.6024)">
<stop stop-color="white"/>
<stop offset="1"/>
</radialGradient>
<radialGradient id="paint71_radial_458_1309" cx="0" cy="0" r="1" gradientUnits="userSpaceOnUse" gradientTransform="translate(279.129 196.557) rotate(90) scale(1.5373 1.60262)">
<stop stop-color="white"/>
<stop offset="1"/>
</radialGradient>
<radialGradient id="paint72_radial_458_1309" cx="0" cy="0" r="1" gradientUnits="userSpaceOnUse" gradientTransform="translate(350.639 189.904) rotate(90) scale(1.53731 1.60262)">
<stop stop-color="white"/>
<stop offset="1"/>
</radialGradient>
<radialGradient id="paint73_radial_458_1309" cx="0" cy="0" r="1" gradientUnits="userSpaceOnUse" gradientTransform="translate(323.944 17.8262) rotate(90) scale(1.53708 1.60239)">
<stop stop-color="white"/>
<stop offset="1"/>
</radialGradient>
<radialGradient id="paint74_radial_458_1309" cx="0" cy="0" r="1" gradientUnits="userSpaceOnUse" gradientTransform="translate(174.432 26.6462) rotate(90) scale(2.50437 2.61078)">
<stop stop-color="white"/>
<stop offset="1"/>
</radialGradient>
<linearGradient id="paint75_linear_458_1309" x1="264.631" y1="151.244" x2="125.311" y2="67.3896" gradientUnits="userSpaceOnUse">
<stop stop-color="#A7A9AC"/>
<stop offset="0.0624" stop-color="#9A9C9E"/>
<stop offset="0.3939" stop-color="#58595B"/>
<stop offset="0.6716" stop-color="#29292A"/>
<stop offset="0.8819" stop-color="#0B0B0B"/>
<stop offset="1"/>
</linearGradient>
<linearGradient id="paint76_linear_458_1309" x1="137.456" y1="66.8776" x2="332.617" y2="66.8776" gradientUnits="userSpaceOnUse">
<stop stop-color="#A7A9AC"/>
<stop offset="1"/>
</linearGradient>
<linearGradient id="paint77_linear_458_1309" x1="276.329" y1="274.151" x2="136.051" y2="189.719" gradientUnits="userSpaceOnUse">
<stop stop-color="#A7A9AC"/>
<stop offset="0.0624" stop-color="#9A9C9E"/>
<stop offset="0.3939" stop-color="#58595B"/>
<stop offset="0.6716" stop-color="#29292A"/>
<stop offset="0.8819" stop-color="#0B0B0B"/>
<stop offset="1"/>
</linearGradient>
</defs>
</svg>
