<svg width="60" height="60" viewBox="0 0 60 60" fill="none" xmlns="http://www.w3.org/2000/svg">
<rect x="1" y="1" width="58" height="58" rx="29" stroke="#FDEDC4" stroke-width="2"/>
<path d="M30 24.375C30 24.375 29.9951 24.375 29.9854 24.375C29.9756 24.375 29.9707 24.375 29.9707 24.375C29.7168 24.375 29.4873 24.3018 29.2822 24.1553C29.0771 24.0088 28.9355 23.8281 28.8574 23.6133C28.8184 23.5352 28.7891 23.457 28.7695 23.3789C28.75 23.3008 28.7402 23.2227 28.7402 23.1445C28.7402 23.1445 28.7402 23.1348 28.7402 23.1152C28.7402 23.0762 28.7451 23.0371 28.7549 22.998C28.7646 22.959 28.7695 22.9102 28.7695 22.8516V22.8809C28.7891 22.8418 28.8037 22.8027 28.8135 22.7637C28.8232 22.7246 28.8379 22.6855 28.8574 22.6465C28.877 22.6074 28.8916 22.5684 28.9014 22.5293C28.9111 22.4902 28.9355 22.4512 28.9746 22.4121C28.9941 22.3926 29.0137 22.3633 29.0332 22.3242C29.0527 22.2852 29.082 22.2559 29.1211 22.2363C29.2188 22.1191 29.3457 22.0312 29.502 21.9727C29.6582 21.9141 29.8242 21.8848 30 21.8848C30.0391 21.8848 30.0781 21.8848 30.1172 21.8848C30.1562 21.8848 30.1953 21.8945 30.2344 21.9141C30.2734 21.9141 30.3174 21.9189 30.3662 21.9287C30.415 21.9385 30.4492 21.9531 30.4688 21.9727C30.5078 21.9922 30.5469 22.0117 30.5859 22.0312C30.625 22.0508 30.6641 22.0703 30.7031 22.0898C30.7422 22.1094 30.7764 22.1338 30.8057 22.1631C30.835 22.1924 30.8594 22.2168 30.8789 22.2363C30.918 22.2559 30.9473 22.2852 30.9668 22.3242C30.9863 22.3633 31.0059 22.3926 31.0254 22.4121C31.0645 22.4512 31.0889 22.4902 31.0986 22.5293C31.1084 22.5684 31.123 22.6074 31.1426 22.6465C31.1621 22.6855 31.1768 22.7246 31.1865 22.7637C31.1963 22.8027 31.2109 22.8418 31.2305 22.8809C31.2305 22.9199 31.2354 22.959 31.2451 22.998C31.2549 23.0371 31.2598 23.0762 31.2598 23.1152C31.2598 23.2129 31.25 23.3008 31.2305 23.3789C31.2109 23.457 31.1816 23.5352 31.1426 23.6133C31.123 23.6914 31.0889 23.7646 31.04 23.833C30.9912 23.9014 30.9375 23.9648 30.8789 24.0234C30.7617 24.1211 30.6299 24.2041 30.4834 24.2725C30.3369 24.3408 30.1758 24.375 30 24.375ZM32.4902 38.1152C32.4902 37.7832 32.3682 37.4951 32.124 37.251C31.8799 37.0068 31.5918 36.8848 31.2598 36.8848H28.7402C28.4082 36.8848 28.1201 37.0068 27.876 37.251C27.6318 37.4951 27.5098 37.7832 27.5098 38.1152C27.5098 38.4668 27.6318 38.7646 27.876 39.0088C28.1201 39.2529 28.4082 39.375 28.7402 39.375H31.2598C31.5918 39.375 31.8799 39.2529 32.124 39.0088C32.3682 38.7646 32.4902 38.4668 32.4902 38.1152ZM38.7598 38.7598V22.5C38.7598 21.2891 38.3301 20.2588 37.4707 19.4092C36.6113 18.5596 35.5762 18.1348 34.3652 18.1348H25.6348C24.4238 18.1348 23.3887 18.5596 22.5293 19.4092C21.6699 20.2588 21.2402 21.2891 21.2402 22.5V38.7598C21.2402 39.9512 21.6699 40.9766 22.5293 41.8359C23.3887 42.6953 24.4238 43.125 25.6348 43.125H34.3652C35.5762 43.125 36.6113 42.6953 37.4707 41.8359C38.3301 40.9766 38.7598 39.9512 38.7598 38.7598ZM34.3652 20.625C34.8926 20.625 35.3369 20.8105 35.6982 21.1816C36.0596 21.5527 36.2402 21.9922 36.2402 22.5V38.7598C36.2402 39.2676 36.0596 39.707 35.6982 40.0781C35.3369 40.4492 34.8926 40.6348 34.3652 40.6348H25.6348C25.1074 40.6348 24.6631 40.4492 24.3018 40.0781C23.9404 39.707 23.7598 39.2676 23.7598 38.7598V22.5C23.7598 21.9922 23.9404 21.5527 24.3018 21.1816C24.6631 20.8105 25.1074 20.625 25.6348 20.625H34.3652Z" fill="#F7C239"/>
</svg>
