<svg width="60" height="60" viewBox="0 0 60 60" fill="none" xmlns="http://www.w3.org/2000/svg">
<rect x="1" y="1" width="58" height="58" rx="29" stroke="#C4EAFC" stroke-width="2"/>
<path d="M42.5098 36.8848H39.9902C40.3418 36.8848 40.6396 36.7627 40.8838 36.5186C41.1279 36.2744 41.25 35.9766 41.25 35.625V25.6348C41.25 24.5996 40.8838 23.7158 40.1514 22.9834C39.4189 22.251 38.5352 21.8848 37.5 21.8848H22.5C21.4648 21.8848 20.5811 22.251 19.8486 22.9834C19.1162 23.7158 18.75 24.5996 18.75 25.6348V35.625C18.75 35.9766 18.8721 36.2744 19.1162 36.5186C19.3604 36.7627 19.6582 36.8848 20.0098 36.8848H17.4902C17.1582 36.8848 16.8701 37.0068 16.626 37.251C16.3818 37.4951 16.2598 37.7832 16.2598 38.1152C16.2598 38.4668 16.3818 38.7646 16.626 39.0088C16.8701 39.2529 17.1582 39.375 17.4902 39.375H42.5098C42.8418 39.375 43.1299 39.2529 43.374 39.0088C43.6182 38.7646 43.7402 38.4668 43.7402 38.1152C43.7402 37.7832 43.6182 37.4951 43.374 37.251C43.1299 37.0068 42.8418 36.8848 42.5098 36.8848ZM21.2402 25.6348C21.2402 25.2832 21.3623 24.9854 21.6064 24.7412C21.8506 24.4971 22.1484 24.375 22.5 24.375H37.5C37.8516 24.375 38.1494 24.4971 38.3936 24.7412C38.6377 24.9854 38.7598 25.2832 38.7598 25.6348V34.3652H21.2402V25.6348Z" fill="#39BAF6"/>
</svg>
